<?xml version="1.0" encoding="utf-8" standalone="no"?>
<!DOCTYPE svg PUBLIC "-//W3C//DTD SVG 1.1//EN"
  "http://www.w3.org/Graphics/SVG/1.1/DTD/svg11.dtd">
<svg xmlns:xlink="http://www.w3.org/1999/xlink" width="1080pt" height="720pt" viewBox="0 0 1080 720" xmlns="http://www.w3.org/2000/svg" version="1.1">
 <metadata>
  <rdf:RDF xmlns:dc="http://purl.org/dc/elements/1.1/" xmlns:cc="http://creativecommons.org/ns#" xmlns:rdf="http://www.w3.org/1999/02/22-rdf-syntax-ns#">
   <cc:Work>
    <dc:type rdf:resource="http://purl.org/dc/dcmitype/StillImage"/>
    <dc:date>2025-05-12T14:03:31.133033</dc:date>
    <dc:format>image/svg+xml</dc:format>
    <dc:creator>
     <cc:Agent>
      <dc:title>Matplotlib v3.8.3, https://matplotlib.org/</dc:title>
     </cc:Agent>
    </dc:creator>
   </cc:Work>
  </rdf:RDF>
 </metadata>
 <defs>
  <style type="text/css">*{stroke-linejoin: round; stroke-linecap: butt}</style>
 </defs>
 <g id="figure_1">
  <g id="patch_1">
   <path d="M 0 720 
L 1080 720 
L 1080 0 
L 0 0 
z
" style="fill: #ffffff"/>
  </g>
  <g id="axes_1">
   <g id="patch_2">
    <path d="M 56.855 324.17125 
L 537.12 324.17125 
L 537.12 27.015 
L 56.855 27.015 
z
" style="fill: #ffffff"/>
   </g>
   <g id="matplotlib.axis_1">
    <g id="xtick_1">
     <g id="line2d_1">
      <path d="M 78.248186 324.17125 
L 78.248186 27.015 
" clip-path="url(#p5505b24140)" style="fill: none; stroke: #b0b0b0; stroke-width: 0.8; stroke-linecap: square"/>
     </g>
     <g id="line2d_2">
      <defs>
       <path id="m97cd26a0bd" d="M 0 0 
L 0 3.5 
" style="stroke: #000000; stroke-width: 0.8"/>
      </defs>
      <g>
       <use xlink:href="#m97cd26a0bd" x="78.248186" y="324.17125" style="stroke: #000000; stroke-width: 0.8"/>
      </g>
     </g>
     <g id="text_1">
      <!-- 0 -->
      <g transform="translate(75.748186 338.04625) scale(0.1 -0.1)">
       <defs>
        <path id="SimHei-30" d="M 225 2537 
Q 250 3200 412 3587 
Q 575 3975 875 4225 
Q 1175 4475 1612 4475 
Q 2050 4475 2375 4112 
Q 2700 3750 2800 3200 
Q 2900 2650 2862 1937 
Q 2825 1225 2612 775 
Q 2400 325 1975 150 
Q 1550 -25 1125 187 
Q 700 400 525 750 
Q 350 1100 275 1487 
Q 200 1875 225 2537 
z
M 750 2687 
Q 675 2000 800 1462 
Q 925 925 1212 700 
Q 1500 475 1800 612 
Q 2100 750 2237 1162 
Q 2375 1575 2375 2062 
Q 2375 2550 2337 2950 
Q 2300 3350 2112 3675 
Q 1925 4000 1612 4012 
Q 1300 4025 1062 3700 
Q 825 3375 750 2687 
z
" transform="scale(0.015625)"/>
       </defs>
       <use xlink:href="#SimHei-30"/>
      </g>
     </g>
    </g>
    <g id="xtick_2">
     <g id="line2d_3">
      <path d="M 165.656503 324.17125 
L 165.656503 27.015 
" clip-path="url(#p5505b24140)" style="fill: none; stroke: #b0b0b0; stroke-width: 0.8; stroke-linecap: square"/>
     </g>
     <g id="line2d_4">
      <g>
       <use xlink:href="#m97cd26a0bd" x="165.656503" y="324.17125" style="stroke: #000000; stroke-width: 0.8"/>
      </g>
     </g>
     <g id="text_2">
      <!-- 20000 -->
      <g transform="translate(153.156503 338.04625) scale(0.1 -0.1)">
       <defs>
        <path id="SimHei-32" d="M 300 250 
Q 325 625 650 925 
Q 975 1225 1475 1862 
Q 1975 2500 2125 2850 
Q 2275 3200 2237 3450 
Q 2200 3700 2000 3862 
Q 1800 4025 1537 4000 
Q 1275 3975 1037 3800 
Q 800 3625 675 3275 
L 200 3350 
Q 400 3925 712 4187 
Q 1025 4450 1450 4475 
Q 1700 4500 1900 4462 
Q 2100 4425 2312 4287 
Q 2525 4150 2662 3875 
Q 2800 3600 2762 3212 
Q 2725 2825 2375 2287 
Q 2025 1750 1025 600 
L 2825 600 
L 2825 150 
L 300 150 
L 300 250 
z
" transform="scale(0.015625)"/>
       </defs>
       <use xlink:href="#SimHei-32"/>
       <use xlink:href="#SimHei-30" x="50"/>
       <use xlink:href="#SimHei-30" x="100"/>
       <use xlink:href="#SimHei-30" x="150"/>
       <use xlink:href="#SimHei-30" x="200"/>
      </g>
     </g>
    </g>
    <g id="xtick_3">
     <g id="line2d_5">
      <path d="M 253.064821 324.17125 
L 253.064821 27.015 
" clip-path="url(#p5505b24140)" style="fill: none; stroke: #b0b0b0; stroke-width: 0.8; stroke-linecap: square"/>
     </g>
     <g id="line2d_6">
      <g>
       <use xlink:href="#m97cd26a0bd" x="253.064821" y="324.17125" style="stroke: #000000; stroke-width: 0.8"/>
      </g>
     </g>
     <g id="text_3">
      <!-- 40000 -->
      <g transform="translate(240.564821 338.04625) scale(0.1 -0.1)">
       <defs>
        <path id="SimHei-34" d="M 2000 1100 
L 75 1100 
L 75 1525 
L 2100 4450 
L 2475 4450 
L 2475 1525 
L 3075 1525 
L 3075 1100 
L 2475 1100 
L 2475 150 
L 2000 150 
L 2000 1100 
z
M 2000 1525 
L 2000 3500 
L 600 1525 
L 2000 1525 
z
" transform="scale(0.015625)"/>
       </defs>
       <use xlink:href="#SimHei-34"/>
       <use xlink:href="#SimHei-30" x="50"/>
       <use xlink:href="#SimHei-30" x="100"/>
       <use xlink:href="#SimHei-30" x="150"/>
       <use xlink:href="#SimHei-30" x="200"/>
      </g>
     </g>
    </g>
    <g id="xtick_4">
     <g id="line2d_7">
      <path d="M 340.473138 324.17125 
L 340.473138 27.015 
" clip-path="url(#p5505b24140)" style="fill: none; stroke: #b0b0b0; stroke-width: 0.8; stroke-linecap: square"/>
     </g>
     <g id="line2d_8">
      <g>
       <use xlink:href="#m97cd26a0bd" x="340.473138" y="324.17125" style="stroke: #000000; stroke-width: 0.8"/>
      </g>
     </g>
     <g id="text_4">
      <!-- 60000 -->
      <g transform="translate(327.973138 338.04625) scale(0.1 -0.1)">
       <defs>
        <path id="SimHei-36" d="M 250 1612 
Q 275 1975 387 2225 
Q 500 2475 725 2850 
L 1750 4450 
L 2325 4450 
L 1275 2800 
Q 1950 2975 2350 2750 
Q 2750 2525 2887 2237 
Q 3025 1950 3037 1612 
Q 3050 1275 2937 950 
Q 2825 625 2537 362 
Q 2250 100 1737 75 
Q 1225 50 862 262 
Q 500 475 362 862 
Q 225 1250 250 1612 
z
M 1025 787 
Q 1250 550 1625 525 
Q 2000 500 2250 775 
Q 2500 1050 2500 1575 
Q 2500 2100 2187 2300 
Q 1875 2500 1487 2450 
Q 1100 2400 925 2075 
Q 750 1750 775 1387 
Q 800 1025 1025 787 
z
" transform="scale(0.015625)"/>
       </defs>
       <use xlink:href="#SimHei-36"/>
       <use xlink:href="#SimHei-30" x="50"/>
       <use xlink:href="#SimHei-30" x="100"/>
       <use xlink:href="#SimHei-30" x="150"/>
       <use xlink:href="#SimHei-30" x="200"/>
      </g>
     </g>
    </g>
    <g id="xtick_5">
     <g id="line2d_9">
      <path d="M 427.881455 324.17125 
L 427.881455 27.015 
" clip-path="url(#p5505b24140)" style="fill: none; stroke: #b0b0b0; stroke-width: 0.8; stroke-linecap: square"/>
     </g>
     <g id="line2d_10">
      <g>
       <use xlink:href="#m97cd26a0bd" x="427.881455" y="324.17125" style="stroke: #000000; stroke-width: 0.8"/>
      </g>
     </g>
     <g id="text_5">
      <!-- 80000 -->
      <g transform="translate(415.381455 338.04625) scale(0.1 -0.1)">
       <defs>
        <path id="SimHei-38" d="M 175 1375 
Q 175 1675 325 1962 
Q 475 2250 825 2425 
Q 525 2600 425 2812 
Q 325 3025 312 3300 
Q 300 3575 387 3775 
Q 475 3975 650 4150 
Q 825 4325 1037 4387 
Q 1250 4450 1500 4450 
Q 1750 4450 1950 4400 
Q 2150 4350 2375 4187 
Q 2600 4025 2700 3725 
Q 2800 3425 2687 3025 
Q 2575 2625 2100 2400 
Q 2525 2275 2700 2012 
Q 2875 1750 2875 1375 
Q 2875 1000 2762 775 
Q 2650 550 2512 400 
Q 2375 250 2137 162 
Q 1900 75 1537 75 
Q 1175 75 912 162 
Q 650 250 475 425 
Q 300 600 237 837 
Q 175 1075 175 1375 
z
M 687 1400 
Q 675 1100 787 875 
Q 900 650 1200 587 
Q 1500 525 1825 600 
Q 2150 675 2275 950 
Q 2400 1225 2362 1500 
Q 2325 1775 2050 1962 
Q 1775 2150 1450 2125 
Q 1125 2100 912 1900 
Q 700 1700 687 1400 
z
M 775 3350 
Q 775 3100 950 2875 
Q 1125 2650 1500 2650 
Q 1875 2650 2062 2875 
Q 2250 3100 2237 3412 
Q 2225 3725 2012 3875 
Q 1800 4025 1437 4000 
Q 1075 3975 925 3787 
Q 775 3600 775 3350 
z
" transform="scale(0.015625)"/>
       </defs>
       <use xlink:href="#SimHei-38"/>
       <use xlink:href="#SimHei-30" x="50"/>
       <use xlink:href="#SimHei-30" x="100"/>
       <use xlink:href="#SimHei-30" x="150"/>
       <use xlink:href="#SimHei-30" x="200"/>
      </g>
     </g>
    </g>
    <g id="xtick_6">
     <g id="line2d_11">
      <path d="M 515.289773 324.17125 
L 515.289773 27.015 
" clip-path="url(#p5505b24140)" style="fill: none; stroke: #b0b0b0; stroke-width: 0.8; stroke-linecap: square"/>
     </g>
     <g id="line2d_12">
      <g>
       <use xlink:href="#m97cd26a0bd" x="515.289773" y="324.17125" style="stroke: #000000; stroke-width: 0.8"/>
      </g>
     </g>
     <g id="text_6">
      <!-- 100000 -->
      <g transform="translate(500.289773 338.04625) scale(0.1 -0.1)">
       <defs>
        <path id="SimHei-31" d="M 1400 3600 
Q 1075 3275 575 2975 
L 575 3450 
Q 1200 3875 1600 4450 
L 1900 4450 
L 1900 150 
L 1400 150 
L 1400 3600 
z
" transform="scale(0.015625)"/>
       </defs>
       <use xlink:href="#SimHei-31"/>
       <use xlink:href="#SimHei-30" x="50"/>
       <use xlink:href="#SimHei-30" x="100"/>
       <use xlink:href="#SimHei-30" x="150"/>
       <use xlink:href="#SimHei-30" x="200"/>
       <use xlink:href="#SimHei-30" x="250"/>
      </g>
     </g>
    </g>
    <g id="text_7">
     <!-- 数据量 -->
     <g transform="translate(281.9875 351.030625) scale(0.1 -0.1)">
      <defs>
       <path id="SimHei-6570" d="M 4525 4925 
Q 4475 4800 4400 4587 
Q 4325 4375 4175 3825 
L 5325 3825 
Q 5575 3825 5925 3850 
L 5925 3400 
Q 5650 3425 5500 3425 
Q 5500 3025 5362 2162 
Q 5225 1300 4875 675 
Q 5125 375 5437 137 
Q 5750 -100 6025 -200 
Q 5725 -425 5625 -625 
Q 5325 -450 5075 -225 
Q 4825 0 4575 325 
Q 4300 25 3987 -187 
Q 3675 -400 3200 -650 
Q 3075 -425 2850 -300 
Q 3225 -150 3650 125 
Q 4075 400 4300 675 
Q 4125 1025 3962 1425 
Q 3800 1825 3675 2475 
Q 3600 2275 3425 1950 
Q 3250 2050 3000 2150 
Q 3400 2850 3650 3675 
Q 3900 4500 3975 5100 
Q 4275 4975 4525 4925 
z
M 2100 2250 
Q 2000 2150 1875 1925 
L 3250 1925 
Q 3100 1300 2725 675 
Q 3125 525 3350 400 
Q 3225 225 3125 25 
Q 2900 175 2450 325 
Q 1950 -225 725 -650 
Q 600 -375 400 -275 
Q 1575 0 2000 475 
Q 1300 650 850 775 
Q 1000 1000 1250 1525 
Q 1000 1525 425 1500 
L 425 1950 
Q 900 1925 1400 1925 
Q 1500 2150 1550 2425 
Q 1825 2325 2100 2250 
z
M 1775 3950 
Q 1775 4550 1750 5100 
L 2250 5100 
Q 2225 4575 2225 3950 
Q 3075 3950 3425 3975 
L 3425 3525 
Q 3075 3550 2225 3550 
Q 2225 2825 2250 2425 
L 1750 2425 
Q 1775 2775 1775 3300 
Q 1650 3100 1300 2787 
Q 950 2475 650 2300 
Q 525 2525 275 2625 
Q 500 2700 875 2975 
Q 1250 3250 1450 3550 
Q 950 3550 500 3525 
L 500 3975 
Q 925 3950 1775 3950 
z
M 3975 3175 
Q 4200 1700 4600 1125 
Q 4850 1700 4937 2287 
Q 5025 2875 5050 3425 
L 4075 3425 
L 3975 3175 
z
M 1450 1000 
Q 1750 925 2275 800 
Q 2475 1050 2650 1525 
L 1725 1525 
Q 1600 1275 1450 1000 
z
M 3325 4825 
Q 3200 4625 3125 4450 
Q 3050 4275 2925 4025 
Q 2725 4125 2525 4175 
Q 2725 4500 2900 5000 
Q 3150 4875 3325 4825 
z
M 2575 3375 
Q 2900 3050 3200 2725 
Q 3050 2600 2875 2425 
Q 2525 2850 2300 3100 
Q 2450 3225 2575 3375 
z
M 925 5000 
Q 1275 4650 1500 4300 
L 1125 4075 
Q 950 4425 600 4725 
Q 825 4875 925 5000 
z
" transform="scale(0.015625)"/>
       <path id="SimHei-636e" d="M 5750 4775 
Q 5725 4550 5725 4225 
L 5725 3900 
Q 5725 3450 5750 3250 
L 3100 3250 
L 3100 2500 
L 4250 2500 
Q 4250 2725 4225 3175 
L 4700 3175 
Q 4675 2775 4675 2500 
L 5350 2500 
Q 5800 2500 6100 2525 
L 6100 2075 
Q 5800 2100 5375 2100 
L 4675 2100 
L 4675 1425 
L 5775 1425 
Q 5750 950 5750 800 
L 5750 175 
Q 5750 -225 5775 -575 
L 5325 -575 
L 5325 -225 
L 3675 -225 
L 3675 -600 
L 3225 -600 
Q 3250 -325 3250 100 
L 3250 825 
Q 3250 1075 3225 1425 
L 4250 1425 
L 4250 2100 
L 3075 2100 
Q 3050 1375 2887 737 
Q 2725 100 2425 -475 
Q 2200 -325 1950 -250 
Q 2250 150 2387 600 
Q 2525 1050 2600 1562 
Q 2675 2075 2675 2625 
L 2675 3575 
Q 2675 3975 2650 4775 
L 5750 4775 
z
M 1275 4425 
Q 1275 4775 1250 5075 
L 1750 5075 
Q 1725 4800 1725 4425 
L 1725 3775 
Q 1975 3775 2500 3800 
L 2500 3375 
Q 1975 3400 1725 3400 
L 1725 2450 
Q 2050 2625 2400 2850 
Q 2425 2650 2525 2475 
Q 2050 2200 1725 2000 
L 1725 175 
Q 1725 -300 1487 -400 
Q 1250 -500 775 -575 
Q 725 -325 600 -50 
Q 1025 -50 1150 -12 
Q 1275 25 1275 325 
L 1275 1800 
Q 900 1600 525 1325 
Q 450 1525 275 1800 
Q 775 1975 1275 2250 
L 1275 3400 
Q 800 3400 350 3375 
L 350 3800 
Q 800 3775 1275 3775 
L 1275 4425 
z
M 5300 3625 
L 5300 4400 
L 3100 4400 
L 3100 3625 
L 5300 3625 
z
M 5325 150 
L 5325 1075 
L 3675 1075 
L 3675 150 
L 5325 150 
z
" transform="scale(0.015625)"/>
       <path id="SimHei-91cf" d="M 5250 2500 
Q 5225 2200 5225 1700 
Q 5225 1225 5250 950 
L 3425 950 
L 3425 625 
L 4575 625 
Q 5000 625 5375 650 
L 5375 275 
Q 5025 300 4575 300 
L 3425 300 
L 3425 -75 
L 5125 -75 
Q 5525 -75 5925 -50 
L 5925 -425 
Q 5525 -400 5125 -400 
L 1275 -400 
Q 900 -400 475 -425 
L 475 -50 
Q 925 -50 1275 -75 
L 2975 -75 
L 2975 300 
L 1725 300 
Q 1350 300 975 250 
L 975 650 
Q 1375 625 1725 625 
L 2975 625 
L 2975 950 
L 1150 950 
Q 1175 1375 1175 1775 
Q 1175 2175 1150 2500 
L 5250 2500 
z
M 5200 4950 
Q 5175 4575 5175 4250 
Q 5175 3925 5200 3400 
L 1200 3400 
Q 1225 3925 1225 4250 
Q 1225 4575 1200 4950 
L 5200 4950 
z
M 4900 3100 
Q 5500 3125 6000 3150 
L 6000 2750 
Q 5500 2775 4925 2775 
L 1650 2775 
Q 975 2775 325 2750 
L 325 3150 
Q 975 3125 1650 3100 
L 4900 3100 
z
M 4725 3700 
L 4725 4025 
L 1675 4025 
L 1675 3700 
L 4725 3700 
z
M 4725 4350 
L 4725 4650 
L 1675 4650 
L 1675 4350 
L 4725 4350 
z
M 4750 1875 
L 4750 2175 
L 3425 2175 
L 3425 1875 
L 4750 1875 
z
M 2975 1875 
L 2975 2175 
L 1650 2175 
L 1650 1875 
L 2975 1875 
z
M 2975 1275 
L 2975 1550 
L 1650 1550 
L 1650 1275 
L 2975 1275 
z
M 4750 1275 
L 4750 1550 
L 3425 1550 
L 3425 1275 
L 4750 1275 
z
" transform="scale(0.015625)"/>
      </defs>
      <use xlink:href="#SimHei-6570"/>
      <use xlink:href="#SimHei-636e" x="100"/>
      <use xlink:href="#SimHei-91cf" x="200"/>
     </g>
    </g>
   </g>
   <g id="matplotlib.axis_2">
    <g id="ytick_1">
     <g id="line2d_13">
      <path d="M 56.855 310.95661 
L 537.12 310.95661 
" clip-path="url(#p5505b24140)" style="fill: none; stroke: #b0b0b0; stroke-width: 0.8; stroke-linecap: square"/>
     </g>
     <g id="line2d_14">
      <defs>
       <path id="mc5b9877437" d="M 0 0 
L -3.5 0 
" style="stroke: #000000; stroke-width: 0.8"/>
      </defs>
      <g>
       <use xlink:href="#mc5b9877437" x="56.855" y="310.95661" style="stroke: #000000; stroke-width: 0.8"/>
      </g>
     </g>
     <g id="text_8">
      <!-- 0.0 -->
      <g transform="translate(34.855 314.39411) scale(0.1 -0.1)">
       <defs>
        <path id="SimHei-2e" d="M 1075 125 
L 500 125 
L 500 675 
L 1075 675 
L 1075 125 
z
" transform="scale(0.015625)"/>
       </defs>
       <use xlink:href="#SimHei-30"/>
       <use xlink:href="#SimHei-2e" x="50"/>
       <use xlink:href="#SimHei-30" x="100"/>
      </g>
     </g>
    </g>
    <g id="ytick_2">
     <g id="line2d_15">
      <path d="M 56.855 273.259119 
L 537.12 273.259119 
" clip-path="url(#p5505b24140)" style="fill: none; stroke: #b0b0b0; stroke-width: 0.8; stroke-linecap: square"/>
     </g>
     <g id="line2d_16">
      <g>
       <use xlink:href="#mc5b9877437" x="56.855" y="273.259119" style="stroke: #000000; stroke-width: 0.8"/>
      </g>
     </g>
     <g id="text_9">
      <!-- 0.2 -->
      <g transform="translate(34.855 276.696619) scale(0.1 -0.1)">
       <use xlink:href="#SimHei-30"/>
       <use xlink:href="#SimHei-2e" x="50"/>
       <use xlink:href="#SimHei-32" x="100"/>
      </g>
     </g>
    </g>
    <g id="ytick_3">
     <g id="line2d_17">
      <path d="M 56.855 235.561627 
L 537.12 235.561627 
" clip-path="url(#p5505b24140)" style="fill: none; stroke: #b0b0b0; stroke-width: 0.8; stroke-linecap: square"/>
     </g>
     <g id="line2d_18">
      <g>
       <use xlink:href="#mc5b9877437" x="56.855" y="235.561627" style="stroke: #000000; stroke-width: 0.8"/>
      </g>
     </g>
     <g id="text_10">
      <!-- 0.4 -->
      <g transform="translate(34.855 238.999127) scale(0.1 -0.1)">
       <use xlink:href="#SimHei-30"/>
       <use xlink:href="#SimHei-2e" x="50"/>
       <use xlink:href="#SimHei-34" x="100"/>
      </g>
     </g>
    </g>
    <g id="ytick_4">
     <g id="line2d_19">
      <path d="M 56.855 197.864135 
L 537.12 197.864135 
" clip-path="url(#p5505b24140)" style="fill: none; stroke: #b0b0b0; stroke-width: 0.8; stroke-linecap: square"/>
     </g>
     <g id="line2d_20">
      <g>
       <use xlink:href="#mc5b9877437" x="56.855" y="197.864135" style="stroke: #000000; stroke-width: 0.8"/>
      </g>
     </g>
     <g id="text_11">
      <!-- 0.6 -->
      <g transform="translate(34.855 201.301635) scale(0.1 -0.1)">
       <use xlink:href="#SimHei-30"/>
       <use xlink:href="#SimHei-2e" x="50"/>
       <use xlink:href="#SimHei-36" x="100"/>
      </g>
     </g>
    </g>
    <g id="ytick_5">
     <g id="line2d_21">
      <path d="M 56.855 160.166644 
L 537.12 160.166644 
" clip-path="url(#p5505b24140)" style="fill: none; stroke: #b0b0b0; stroke-width: 0.8; stroke-linecap: square"/>
     </g>
     <g id="line2d_22">
      <g>
       <use xlink:href="#mc5b9877437" x="56.855" y="160.166644" style="stroke: #000000; stroke-width: 0.8"/>
      </g>
     </g>
     <g id="text_12">
      <!-- 0.8 -->
      <g transform="translate(34.855 163.604144) scale(0.1 -0.1)">
       <use xlink:href="#SimHei-30"/>
       <use xlink:href="#SimHei-2e" x="50"/>
       <use xlink:href="#SimHei-38" x="100"/>
      </g>
     </g>
    </g>
    <g id="ytick_6">
     <g id="line2d_23">
      <path d="M 56.855 122.469152 
L 537.12 122.469152 
" clip-path="url(#p5505b24140)" style="fill: none; stroke: #b0b0b0; stroke-width: 0.8; stroke-linecap: square"/>
     </g>
     <g id="line2d_24">
      <g>
       <use xlink:href="#mc5b9877437" x="56.855" y="122.469152" style="stroke: #000000; stroke-width: 0.8"/>
      </g>
     </g>
     <g id="text_13">
      <!-- 1.0 -->
      <g transform="translate(34.855 125.906652) scale(0.1 -0.1)">
       <use xlink:href="#SimHei-31"/>
       <use xlink:href="#SimHei-2e" x="50"/>
       <use xlink:href="#SimHei-30" x="100"/>
      </g>
     </g>
    </g>
    <g id="ytick_7">
     <g id="line2d_25">
      <path d="M 56.855 84.77166 
L 537.12 84.77166 
" clip-path="url(#p5505b24140)" style="fill: none; stroke: #b0b0b0; stroke-width: 0.8; stroke-linecap: square"/>
     </g>
     <g id="line2d_26">
      <g>
       <use xlink:href="#mc5b9877437" x="56.855" y="84.77166" style="stroke: #000000; stroke-width: 0.8"/>
      </g>
     </g>
     <g id="text_14">
      <!-- 1.2 -->
      <g transform="translate(34.855 88.20916) scale(0.1 -0.1)">
       <use xlink:href="#SimHei-31"/>
       <use xlink:href="#SimHei-2e" x="50"/>
       <use xlink:href="#SimHei-32" x="100"/>
      </g>
     </g>
    </g>
    <g id="ytick_8">
     <g id="line2d_27">
      <path d="M 56.855 47.074169 
L 537.12 47.074169 
" clip-path="url(#p5505b24140)" style="fill: none; stroke: #b0b0b0; stroke-width: 0.8; stroke-linecap: square"/>
     </g>
     <g id="line2d_28">
      <g>
       <use xlink:href="#mc5b9877437" x="56.855" y="47.074169" style="stroke: #000000; stroke-width: 0.8"/>
      </g>
     </g>
     <g id="text_15">
      <!-- 1.4 -->
      <g transform="translate(34.855 50.511669) scale(0.1 -0.1)">
       <use xlink:href="#SimHei-31"/>
       <use xlink:href="#SimHei-2e" x="50"/>
       <use xlink:href="#SimHei-34" x="100"/>
      </g>
     </g>
    </g>
    <g id="text_16">
     <!-- 执行时间 (秒) -->
     <g transform="translate(29.605 208.093125) rotate(-90) scale(0.1 -0.1)">
      <defs>
       <path id="SimHei-6267" d="M 5725 600 
Q 5900 450 6175 300 
Q 5900 -425 5637 -587 
Q 5375 -750 5037 -87 
Q 4700 575 4675 1537 
Q 4650 2500 4675 3500 
L 4000 3500 
Q 3950 2525 3850 1900 
Q 4075 1750 4500 1375 
Q 4275 1175 4125 925 
Q 3925 1175 3750 1350 
Q 3400 575 3075 187 
Q 2750 -200 2375 -600 
Q 2250 -400 1850 -175 
Q 2400 125 2787 625 
Q 3175 1125 3325 1700 
Q 3025 1925 2625 2200 
Q 2775 2375 2925 2575 
Q 3150 2425 3425 2250 
Q 3475 2725 3500 3500 
Q 3050 3500 2650 3475 
L 2650 3950 
Q 3050 3925 3500 3925 
Q 3500 4650 3475 5225 
Q 3700 5200 4025 5200 
Q 4000 4500 4000 3925 
L 5125 3925 
Q 5075 2925 5087 1900 
Q 5100 875 5362 312 
Q 5625 -250 5725 600 
z
M 600 -25 
Q 875 -50 1050 -50 
Q 1225 -50 1225 100 
L 1225 1700 
Q 725 1450 450 1275 
Q 400 1475 225 1900 
Q 550 1950 1225 2200 
L 1225 3325 
Q 700 3325 300 3300 
L 300 3775 
Q 675 3750 1225 3750 
Q 1225 4550 1200 5175 
L 1700 5175 
Q 1675 4625 1675 3750 
Q 1875 3750 2300 3775 
L 2300 3300 
Q 1900 3325 1675 3325 
L 1675 2400 
Q 1825 2450 2275 2650 
Q 2275 2425 2300 2200 
Q 2150 2125 1675 1900 
L 1675 0 
Q 1650 -300 1487 -425 
Q 1325 -550 725 -625 
Q 725 -300 600 -25 
z
" transform="scale(0.015625)"/>
       <path id="SimHei-884c" d="M 5300 3100 
Q 5775 3100 6175 3125 
L 6175 2625 
Q 5775 2650 5325 2650 
L 4975 2650 
L 4975 -75 
Q 5000 -375 4787 -487 
Q 4575 -600 3950 -675 
Q 3900 -375 3675 -75 
Q 4100 -125 4275 -112 
Q 4450 -100 4475 150 
L 4475 2650 
L 3475 2650 
Q 3000 2650 2575 2625 
L 2575 3125 
Q 3025 3100 3475 3100 
L 5300 3100 
z
M 2300 3400 
Q 2075 3275 1962 3075 
Q 1850 2875 1650 2575 
L 1650 325 
Q 1650 0 1675 -675 
L 1150 -675 
Q 1175 75 1175 450 
L 1175 2050 
Q 950 1675 575 1300 
Q 400 1550 250 1725 
Q 825 2275 1150 2775 
Q 1475 3275 1725 3725 
Q 1975 3575 2300 3400 
z
M 4875 4800 
Q 5300 4800 5750 4825 
L 5750 4350 
Q 5300 4375 4825 4375 
L 3900 4375 
Q 3350 4375 2950 4350 
L 2950 4825 
Q 3350 4800 3900 4800 
L 4875 4800 
z
M 2075 4925 
Q 1875 4900 1550 4387 
Q 1225 3875 650 3250 
Q 500 3450 325 3625 
Q 725 4025 1050 4487 
Q 1375 4950 1525 5300 
Q 1775 5150 2075 4925 
z
" transform="scale(0.015625)"/>
       <path id="SimHei-65f6" d="M 2525 4575 
Q 2500 3675 2500 2400 
Q 2500 1125 2525 400 
L 2000 400 
L 2000 875 
L 1000 875 
L 1000 50 
L 475 50 
Q 500 1200 500 2350 
Q 500 3525 475 4575 
L 2525 4575 
z
M 4875 3825 
Q 4875 4575 4850 5225 
L 5400 5225 
Q 5375 4575 5375 3825 
Q 5750 3825 6175 3850 
L 6175 3375 
Q 5750 3400 5375 3400 
L 5375 50 
Q 5375 -325 5075 -425 
Q 4775 -525 4300 -575 
Q 4300 -275 4025 0 
Q 4500 -50 4687 -25 
Q 4875 0 4875 300 
L 4875 3400 
Q 3625 3400 2775 3375 
L 2775 3850 
Q 3575 3825 4875 3825 
z
M 2000 1300 
L 2000 2550 
L 1000 2550 
L 1000 1300 
L 2000 1300 
z
M 2000 2975 
L 2000 4150 
L 1000 4150 
L 1000 2975 
L 2000 2975 
z
M 3550 2725 
Q 3875 2200 4175 1600 
Q 3925 1525 3650 1375 
Q 3450 1975 3075 2500 
Q 3300 2600 3550 2725 
z
" transform="scale(0.015625)"/>
       <path id="SimHei-95f4" d="M 4450 3550 
Q 4425 3075 4425 2725 
L 4425 1400 
Q 4425 1075 4450 625 
L 1925 625 
Q 1950 1075 1950 1425 
L 1950 2725 
Q 1950 3075 1925 3550 
L 4450 3550 
z
M 5800 4875 
Q 5775 4400 5775 3925 
L 5775 250 
Q 5800 -325 5462 -450 
Q 5125 -575 4725 -625 
Q 4700 -325 4525 -25 
Q 5000 -50 5137 25 
Q 5275 100 5275 350 
L 5275 4450 
L 3775 4450 
Q 3175 4450 2650 4425 
L 2650 4900 
Q 3175 4875 3775 4875 
L 5800 4875 
z
M 550 -525 
Q 600 -25 600 525 
L 600 3150 
Q 600 3675 550 4025 
L 1125 4025 
Q 1100 3650 1100 3300 
L 1100 500 
Q 1100 0 1125 -525 
L 550 -525 
z
M 3950 1025 
L 3950 1950 
L 2425 1950 
L 2425 1025 
L 3950 1025 
z
M 3950 2350 
L 3950 3150 
L 2425 3150 
L 2425 2350 
L 3950 2350 
z
M 1525 5300 
Q 1750 5000 2225 4350 
Q 1950 4225 1700 4075 
Q 1450 4575 1075 5025 
Q 1350 5225 1525 5300 
z
" transform="scale(0.015625)"/>
       <path id="SimHei-20" transform="scale(0.015625)"/>
       <path id="SimHei-28" d="M 2975 -200 
L 2700 -475 
Q 2075 125 1762 775 
Q 1450 1425 1450 2250 
Q 1450 3075 1762 3725 
Q 2075 4375 2700 5000 
L 2975 4725 
Q 2400 4175 2112 3587 
Q 1825 3000 1825 2250 
Q 1825 1500 2112 912 
Q 2400 325 2975 -200 
z
" transform="scale(0.015625)"/>
       <path id="SimHei-79d2" d="M 2725 4550 
Q 2475 4525 2300 4487 
Q 2125 4450 1925 4400 
L 1925 3325 
Q 2250 3325 2700 3350 
L 2700 2875 
Q 2250 2900 1925 2900 
L 1925 175 
Q 1925 -150 1950 -650 
L 1400 -650 
Q 1450 -150 1450 175 
L 1450 1725 
Q 1300 1375 1087 1000 
Q 875 625 625 375 
Q 450 625 225 850 
Q 600 1150 900 1675 
Q 1200 2200 1375 2900 
L 1275 2900 
Q 850 2900 325 2875 
L 325 3350 
Q 850 3325 1275 3325 
L 1475 3325 
L 1475 4300 
Q 1025 4175 675 4100 
Q 575 4300 425 4500 
Q 950 4575 1412 4687 
Q 1875 4800 2400 5050 
Q 2525 4800 2725 4550 
z
M 5950 2100 
Q 5700 1875 5512 1500 
Q 5325 1125 4987 725 
Q 4650 325 4125 -12 
Q 3600 -350 2625 -625 
Q 2550 -325 2350 -50 
Q 2975 0 3462 187 
Q 3950 375 4300 700 
Q 4650 1025 4900 1450 
Q 5150 1875 5300 2375 
Q 5475 2300 5950 2100 
z
M 4575 5275 
Q 4550 4875 4550 4400 
L 4550 2325 
Q 4550 1925 4575 1425 
L 4075 1425 
Q 4100 1950 4100 2325 
L 4100 4400 
Q 4100 4825 4075 5275 
L 4575 5275 
z
M 3800 3925 
Q 3675 3625 3550 2975 
Q 3425 2325 3325 1975 
Q 3000 2050 2775 2125 
Q 2900 2350 3025 2900 
Q 3150 3450 3225 4050 
Q 3500 3975 3800 3925 
z
M 5275 4175 
Q 5450 3925 5700 3600 
Q 5950 3275 6200 2900 
Q 5975 2775 5725 2625 
Q 5575 2900 5362 3212 
Q 5150 3525 4875 3825 
Q 5075 3975 5275 4175 
z
M 2475 2400 
Q 2575 2225 2700 2012 
Q 2825 1800 2975 1500 
Q 2775 1400 2525 1250 
Q 2425 1500 2300 1737 
Q 2175 1975 2050 2150 
Q 2250 2250 2475 2400 
z
" transform="scale(0.015625)"/>
       <path id="SimHei-29" d="M 1675 2250 
Q 1675 1425 1362 775 
Q 1050 125 425 -475 
L 150 -200 
Q 725 325 1012 912 
Q 1300 1500 1300 2250 
Q 1300 3000 1012 3587 
Q 725 4175 150 4725 
L 425 5000 
Q 1050 4375 1362 3725 
Q 1675 3075 1675 2250 
z
" transform="scale(0.015625)"/>
      </defs>
      <use xlink:href="#SimHei-6267"/>
      <use xlink:href="#SimHei-884c" x="100"/>
      <use xlink:href="#SimHei-65f6" x="200"/>
      <use xlink:href="#SimHei-95f4" x="300"/>
      <use xlink:href="#SimHei-20" x="400"/>
      <use xlink:href="#SimHei-28" x="450"/>
      <use xlink:href="#SimHei-79d2" x="500"/>
      <use xlink:href="#SimHei-29" x="600"/>
     </g>
    </g>
   </g>
   <g id="line2d_29">
    <path d="M 78.685227 310.664148 
L 82.618602 309.358762 
L 121.952344 296.471451 
L 296.768979 242.155495 
L 515.289773 169.123337 
" clip-path="url(#p5505b24140)" style="fill: none; stroke: #ff0000; stroke-width: 1.5; stroke-linecap: square"/>
    <defs>
     <path id="m232338616e" d="M 0 3 
C 0.795609 3 1.55874 2.683901 2.12132 2.12132 
C 2.683901 1.55874 3 0.795609 3 0 
C 3 -0.795609 2.683901 -1.55874 2.12132 -2.12132 
C 1.55874 -2.683901 0.795609 -3 0 -3 
C -0.795609 -3 -1.55874 -2.683901 -2.12132 -2.12132 
C -2.683901 -1.55874 -3 -0.795609 -3 0 
C -3 0.795609 -2.683901 1.55874 -2.12132 2.12132 
C -1.55874 2.683901 -0.795609 3 0 3 
z
" style="stroke: #ff0000"/>
    </defs>
    <g clip-path="url(#p5505b24140)">
     <use xlink:href="#m232338616e" x="78.685227" y="310.664148" style="fill: #ff0000; stroke: #ff0000"/>
     <use xlink:href="#m232338616e" x="82.618602" y="309.358762" style="fill: #ff0000; stroke: #ff0000"/>
     <use xlink:href="#m232338616e" x="121.952344" y="296.471451" style="fill: #ff0000; stroke: #ff0000"/>
     <use xlink:href="#m232338616e" x="296.768979" y="242.155495" style="fill: #ff0000; stroke: #ff0000"/>
     <use xlink:href="#m232338616e" x="515.289773" y="169.123337" style="fill: #ff0000; stroke: #ff0000"/>
    </g>
   </g>
   <g id="line2d_30">
    <path d="M 78.685227 310.270528 
L 82.618602 307.573204 
L 121.952344 278.662654 
L 296.768979 177.630857 
L 515.289773 40.522102 
" clip-path="url(#p5505b24140)" style="fill: none; stroke: #0000ff; stroke-width: 1.5; stroke-linecap: square"/>
    <defs>
     <path id="m88c165463a" d="M 0 3 
C 0.795609 3 1.55874 2.683901 2.12132 2.12132 
C 2.683901 1.55874 3 0.795609 3 0 
C 3 -0.795609 2.683901 -1.55874 2.12132 -2.12132 
C 1.55874 -2.683901 0.795609 -3 0 -3 
C -0.795609 -3 -1.55874 -2.683901 -2.12132 -2.12132 
C -2.683901 -1.55874 -3 -0.795609 -3 0 
C -3 0.795609 -2.683901 1.55874 -2.12132 2.12132 
C -1.55874 2.683901 -0.795609 3 0 3 
z
" style="stroke: #0000ff"/>
    </defs>
    <g clip-path="url(#p5505b24140)">
     <use xlink:href="#m88c165463a" x="78.685227" y="310.270528" style="fill: #0000ff; stroke: #0000ff"/>
     <use xlink:href="#m88c165463a" x="82.618602" y="307.573204" style="fill: #0000ff; stroke: #0000ff"/>
     <use xlink:href="#m88c165463a" x="121.952344" y="278.662654" style="fill: #0000ff; stroke: #0000ff"/>
     <use xlink:href="#m88c165463a" x="296.768979" y="177.630857" style="fill: #0000ff; stroke: #0000ff"/>
     <use xlink:href="#m88c165463a" x="515.289773" y="40.522102" style="fill: #0000ff; stroke: #0000ff"/>
    </g>
   </g>
   <g id="patch_3">
    <path d="M 56.855 324.17125 
L 56.855 27.015 
" style="fill: none; stroke: #000000; stroke-width: 0.8; stroke-linejoin: miter; stroke-linecap: square"/>
   </g>
   <g id="patch_4">
    <path d="M 537.12 324.17125 
L 537.12 27.015 
" style="fill: none; stroke: #000000; stroke-width: 0.8; stroke-linejoin: miter; stroke-linecap: square"/>
   </g>
   <g id="patch_5">
    <path d="M 56.855 324.17125 
L 537.12 324.17125 
" style="fill: none; stroke: #000000; stroke-width: 0.8; stroke-linejoin: miter; stroke-linecap: square"/>
   </g>
   <g id="patch_6">
    <path d="M 56.855 27.015 
L 537.12 27.015 
" style="fill: none; stroke: #000000; stroke-width: 0.8; stroke-linejoin: miter; stroke-linecap: square"/>
   </g>
   <g id="text_17">
    <!-- 不同数据量级下的插入性能 -->
    <g transform="translate(224.9875 21.015) scale(0.12 -0.12)">
     <defs>
      <path id="SimHei-4e0d" d="M 5975 4450 
Q 5525 4475 5200 4475 
L 3725 4475 
Q 3550 4125 3300 3700 
L 3300 575 
Q 3300 75 3325 -550 
L 2775 -550 
Q 2800 50 2800 575 
L 2800 3025 
Q 2025 1950 700 1050 
Q 500 1350 325 1475 
Q 825 1700 1650 2437 
Q 2475 3175 3175 4475 
L 1525 4475 
Q 1050 4475 525 4450 
L 525 4950 
Q 1275 4925 1675 4925 
L 5175 4925 
Q 5500 4925 5975 4950 
L 5975 4450 
z
M 5450 1125 
Q 4975 1725 3750 2975 
Q 3950 3150 4075 3325 
Q 4675 2775 5100 2362 
Q 5525 1950 5900 1550 
Q 5650 1350 5450 1125 
z
" transform="scale(0.015625)"/>
      <path id="SimHei-540c" d="M 5825 4925 
Q 5775 4550 5775 3975 
L 5775 -50 
Q 5775 -400 5525 -487 
Q 5275 -575 4725 -625 
Q 4725 -400 4525 -50 
Q 4925 -50 5100 -12 
Q 5275 25 5275 200 
L 5275 4450 
L 1150 4450 
L 1150 -600 
L 575 -600 
Q 600 -250 625 200 
L 625 3975 
Q 625 4575 600 4925 
L 5825 4925 
z
M 4375 2550 
Q 4325 2275 4325 1700 
Q 4325 1150 4375 725 
L 2025 725 
Q 2050 1175 2050 1750 
Q 2050 2325 2025 2550 
L 4375 2550 
z
M 4100 3750 
Q 4600 3750 4825 3775 
L 4825 3275 
Q 4575 3300 4075 3300 
L 2450 3300 
Q 1850 3300 1600 3275 
L 1600 3775 
Q 1875 3750 2475 3750 
L 4100 3750 
z
M 3875 1150 
L 3875 2150 
L 2525 2150 
L 2525 1150 
L 3875 1150 
z
" transform="scale(0.015625)"/>
      <path id="SimHei-7ea7" d="M 5350 4750 
Q 5125 3925 4900 2975 
L 5775 2975 
Q 5650 2325 5462 1750 
Q 5275 1175 4900 575 
Q 5150 325 5462 112 
Q 5775 -100 6150 -250 
Q 5875 -475 5800 -700 
Q 5175 -350 4600 250 
Q 4425 75 4062 -187 
Q 3700 -450 3125 -700 
Q 3000 -500 2775 -350 
Q 3300 -175 3675 75 
Q 4050 325 4325 600 
Q 4025 950 3500 1950 
Q 3425 1400 3125 800 
Q 2850 175 2125 -475 
Q 1975 -350 1700 -200 
Q 2200 150 2525 637 
Q 2850 1125 2987 1687 
Q 3125 2250 3150 2912 
Q 3175 3575 3175 4350 
Q 2900 4350 2525 4325 
L 2525 4775 
Q 2975 4750 3725 4750 
L 5350 4750 
z
M 1900 4850 
Q 1750 4650 1512 4212 
Q 1275 3775 900 3250 
L 1775 3300 
Q 2025 3700 2175 4125 
Q 2300 4025 2625 3825 
Q 2475 3575 2175 3100 
Q 1875 2625 1200 1725 
Q 1950 1825 2400 1900 
Q 2325 1600 2325 1450 
Q 2075 1425 1562 1350 
Q 1050 1275 575 1150 
Q 500 1400 400 1600 
Q 625 1725 925 2037 
Q 1225 2350 1550 2900 
Q 1275 2875 1012 2850 
Q 750 2825 500 2725 
Q 425 2950 300 3250 
Q 625 3450 937 4025 
Q 1250 4600 1400 5125 
Q 1575 5000 1900 4850 
z
M 3575 3125 
Q 3575 2950 3575 2775 
Q 3750 2325 4100 1750 
Q 4450 1150 4600 975 
Q 5025 1625 5225 2575 
L 4325 2575 
Q 4575 3400 4750 4350 
L 3600 4350 
Q 3600 3750 3575 3125 
z
M 2375 1000 
Q 2300 750 2325 550 
Q 1825 425 1425 312 
Q 1025 200 550 50 
Q 475 300 325 525 
Q 675 600 1112 687 
Q 1550 775 2375 1000 
z
" transform="scale(0.015625)"/>
      <path id="SimHei-4e0b" d="M 5000 4700 
Q 5475 4700 5975 4725 
L 5975 4200 
Q 5425 4225 5000 4225 
L 3275 4225 
L 3275 375 
Q 3275 50 3300 -450 
L 2725 -450 
Q 2750 0 2750 375 
L 2750 4225 
L 1375 4225 
Q 875 4225 400 4200 
L 400 4725 
Q 875 4700 1375 4700 
L 5000 4700 
z
M 5650 1400 
Q 5400 1225 5200 1000 
Q 4800 1525 3650 2575 
L 4025 2950 
Q 4700 2400 5650 1400 
z
" transform="scale(0.015625)"/>
      <path id="SimHei-7684" d="M 2100 4975 
Q 1975 4750 1750 3950 
L 2875 3950 
Q 2850 3525 2850 2875 
L 2850 675 
Q 2850 300 2875 -400 
L 2375 -400 
L 2375 100 
L 1100 100 
L 1100 -450 
L 600 -450 
Q 625 350 625 550 
L 625 2850 
Q 625 3525 600 3950 
L 1325 3950 
Q 1450 4525 1525 5150 
Q 1875 5025 2100 4975 
z
M 5825 3075 
Q 5800 1550 5700 175 
Q 5650 -275 5225 -425 
Q 4800 -575 4275 -625 
Q 4250 -350 4050 -50 
Q 4550 -75 4837 -25 
Q 5125 25 5200 200 
Q 5275 375 5312 1225 
Q 5350 2075 5375 3600 
L 3925 3600 
Q 3725 3125 3350 2475 
Q 3175 2650 2925 2750 
Q 3150 3050 3350 3475 
Q 3550 3900 3700 4400 
Q 3850 4900 3875 5175 
Q 4225 5025 4475 4950 
Q 4350 4750 4262 4512 
Q 4175 4275 4075 4050 
L 5850 4050 
Q 5825 3525 5825 3075 
z
M 2375 525 
L 2375 1850 
L 1100 1850 
L 1100 525 
L 2375 525 
z
M 2375 2275 
L 2375 3525 
L 1100 3525 
L 1100 2275 
L 2375 2275 
z
M 4350 2050 
Q 4500 1750 4700 1275 
Q 4525 1200 4225 1025 
Q 4050 1500 3900 1837 
Q 3750 2175 3600 2400 
Q 3775 2500 4050 2650 
L 4350 2050 
z
" transform="scale(0.015625)"/>
      <path id="SimHei-63d2" d="M 4350 3350 
L 4350 275 
L 5375 275 
L 5375 1200 
Q 5025 1200 4725 1175 
L 4725 1625 
Q 5050 1600 5375 1600 
L 5375 2350 
Q 4975 2350 4700 2325 
L 4700 2750 
Q 5100 2725 5250 2725 
L 5850 2725 
Q 5825 2575 5825 2150 
L 5825 -25 
Q 5825 -225 5850 -625 
L 5375 -625 
L 5375 -125 
L 2925 -125 
L 2925 -675 
L 2475 -675 
Q 2500 -350 2500 -125 
L 2500 1825 
Q 2500 2350 2475 2575 
Q 2750 2625 2950 2700 
Q 3150 2775 3350 2925 
Q 3450 2650 3625 2425 
Q 3425 2425 2925 2300 
L 2925 1600 
Q 3300 1600 3625 1625 
L 3625 1175 
Q 3325 1200 2925 1200 
L 2925 275 
L 3900 275 
L 3900 3350 
L 3150 3350 
Q 2500 3325 2300 3325 
L 2300 3800 
Q 2675 3775 3025 3775 
L 3900 3775 
L 3900 4425 
Q 3325 4375 2625 4300 
Q 2550 4575 2400 4775 
Q 3200 4800 4125 4912 
Q 5050 5025 5475 5200 
Q 5550 4975 5800 4650 
Q 5475 4650 4350 4450 
L 4350 3775 
L 5500 3775 
Q 5800 3775 6075 3800 
L 6075 3325 
Q 5875 3350 5550 3350 
L 4350 3350 
z
M 1125 4500 
Q 1125 4875 1100 5175 
L 1600 5175 
Q 1575 4850 1550 4500 
L 1550 3900 
Q 1875 3900 2125 3925 
L 2125 3450 
Q 1850 3475 1550 3475 
L 1550 2400 
Q 1925 2550 2125 2675 
Q 2125 2425 2150 2250 
Q 1825 2100 1550 1950 
L 1550 100 
Q 1550 -325 1312 -437 
Q 1075 -550 675 -625 
Q 650 -300 475 -25 
Q 850 -25 987 12 
Q 1125 50 1125 225 
L 1125 1775 
Q 900 1700 475 1450 
Q 350 1775 225 1950 
Q 675 2075 1125 2250 
L 1125 3475 
Q 525 3475 350 3425 
L 350 3925 
Q 525 3900 1125 3900 
L 1125 4500 
z
" transform="scale(0.015625)"/>
      <path id="SimHei-5165" d="M 5650 -375 
Q 5050 25 4500 650 
Q 3950 1275 3275 3050 
Q 2575 975 675 -475 
Q 575 -225 225 50 
Q 1850 825 2975 3525 
Q 2900 3725 2525 4125 
Q 2150 4525 1750 4675 
Q 2025 4900 2175 5125 
Q 2800 4650 3175 4225 
Q 3550 3800 4125 2375 
Q 4700 950 6125 250 
Q 5775 0 5650 -375 
z
" transform="scale(0.015625)"/>
      <path id="SimHei-6027" d="M 3450 4525 
Q 3325 4075 3275 3750 
L 4050 3750 
L 4050 4275 
Q 4050 4700 4025 5100 
L 4550 5100 
Q 4525 4700 4525 4275 
L 4525 3750 
L 5025 3750 
Q 5350 3750 5800 3775 
L 5800 3300 
Q 5350 3325 5025 3325 
L 4525 3325 
L 4525 2000 
L 4975 2000 
Q 5350 2000 5725 2025 
L 5725 1550 
Q 5350 1575 4975 1575 
L 4525 1575 
L 4525 25 
L 5200 25 
Q 5625 25 6025 50 
L 6025 -400 
Q 5625 -375 5200 -375 
L 3275 -375 
Q 2825 -375 2400 -400 
L 2400 50 
Q 2825 25 3250 25 
L 4050 25 
L 4050 1575 
L 3625 1575 
Q 3300 1575 2875 1550 
L 2875 2025 
Q 3200 2000 3625 2000 
L 4050 2000 
L 4050 3325 
L 3175 3325 
Q 3100 2950 2775 2225 
Q 2500 2375 2325 2400 
Q 2675 3125 2775 3650 
Q 2875 4175 2950 4650 
Q 3200 4575 3450 4525 
z
M 1700 5150 
Q 1675 4650 1675 4175 
L 1675 425 
Q 1675 -100 1700 -625 
L 1175 -625 
Q 1200 -100 1200 425 
L 1200 4175 
Q 1200 4700 1175 5150 
L 1700 5150 
z
M 975 3725 
Q 825 2675 700 2150 
Q 450 2200 250 2250 
Q 425 2900 525 3800 
Q 725 3775 975 3725 
z
M 2125 4025 
Q 2325 3625 2525 3000 
Q 2300 2925 2125 2825 
Q 1950 3375 1750 3850 
Q 1950 3950 2125 4025 
z
" transform="scale(0.015625)"/>
      <path id="SimHei-80fd" d="M 2025 -150 
Q 2475 -150 2525 -62 
Q 2575 25 2575 200 
L 2575 550 
L 1225 550 
L 1225 -625 
L 750 -625 
Q 775 -125 775 275 
L 775 1950 
Q 775 2400 750 2750 
L 3050 2750 
Q 3025 2375 3025 1925 
L 3025 -175 
Q 3000 -450 2800 -525 
Q 2600 -600 2225 -650 
Q 2175 -425 2025 -150 
z
M 5800 1625 
Q 5700 1600 5212 1375 
Q 4725 1150 4100 950 
L 4100 250 
Q 4100 -50 4375 -50 
L 5275 -50 
Q 5475 0 5550 575 
Q 5750 475 6050 375 
Q 5875 -425 5475 -425 
L 4125 -425 
Q 3650 -425 3650 50 
L 3650 1675 
Q 3650 2050 3625 2350 
L 4125 2350 
Q 4100 2050 4100 1700 
L 4100 1375 
Q 4350 1450 4762 1650 
Q 5175 1850 5425 2075 
Q 5650 1775 5800 1625 
z
M 4100 4100 
Q 4450 4250 4775 4412 
Q 5100 4575 5425 4825 
Q 5625 4575 5775 4400 
Q 5625 4350 5137 4112 
Q 4650 3875 4100 3700 
L 4100 3325 
Q 4100 3025 4450 3025 
L 5175 3025 
Q 5425 3025 5500 3675 
Q 5750 3550 6000 3450 
Q 5825 2650 5375 2650 
L 4250 2650 
Q 3650 2650 3650 3200 
L 3650 4475 
Q 3650 4775 3625 5125 
L 4125 5125 
Q 4100 4950 4100 4400 
L 4100 4100 
z
M 3025 3075 
Q 2950 3200 2825 3350 
Q 2000 3300 1450 3250 
Q 900 3200 625 3125 
Q 550 3425 450 3650 
Q 625 3725 987 4187 
Q 1350 4650 1575 5175 
Q 1700 5075 1850 5025 
Q 2000 4975 2175 4900 
Q 1975 4750 1762 4450 
Q 1550 4150 1075 3600 
Q 2125 3650 2625 3675 
Q 2325 4075 2200 4200 
Q 2375 4300 2600 4475 
Q 2800 4200 2987 3975 
Q 3175 3750 3475 3400 
Q 3200 3200 3025 3075 
z
M 2575 950 
L 2575 1475 
L 1225 1475 
L 1225 950 
L 2575 950 
z
M 2575 1875 
L 2575 2350 
L 1225 2350 
L 1225 1875 
L 2575 1875 
z
" transform="scale(0.015625)"/>
     </defs>
     <use xlink:href="#SimHei-4e0d"/>
     <use xlink:href="#SimHei-540c" x="100"/>
     <use xlink:href="#SimHei-6570" x="200"/>
     <use xlink:href="#SimHei-636e" x="300"/>
     <use xlink:href="#SimHei-91cf" x="400"/>
     <use xlink:href="#SimHei-7ea7" x="500"/>
     <use xlink:href="#SimHei-4e0b" x="600"/>
     <use xlink:href="#SimHei-7684" x="700"/>
     <use xlink:href="#SimHei-63d2" x="800"/>
     <use xlink:href="#SimHei-5165" x="900"/>
     <use xlink:href="#SimHei-6027" x="1000"/>
     <use xlink:href="#SimHei-80fd" x="1100"/>
    </g>
   </g>
   <g id="legend_1">
    <g id="patch_7">
     <path d="M 63.855 61.515 
L 120.855 61.515 
Q 122.855 61.515 122.855 59.515 
L 122.855 34.015 
Q 122.855 32.015 120.855 32.015 
L 63.855 32.015 
Q 61.855 32.015 61.855 34.015 
L 61.855 59.515 
Q 61.855 61.515 63.855 61.515 
z
" style="fill: #ffffff; opacity: 0.8; stroke: #cccccc; stroke-linejoin: miter"/>
    </g>
    <g id="line2d_31">
     <path d="M 65.855 39.515 
L 75.855 39.515 
L 85.855 39.515 
" style="fill: none; stroke: #ff0000; stroke-width: 1.5; stroke-linecap: square"/>
     <g>
      <use xlink:href="#m232338616e" x="75.855" y="39.515" style="fill: #ff0000; stroke: #ff0000"/>
     </g>
    </g>
    <g id="text_18">
     <!-- Redis -->
     <g transform="translate(93.855 43.015) scale(0.1 -0.1)">
      <defs>
       <path id="SimHei-52" d="M 3000 125 
L 2400 125 
L 1500 1975 
L 850 1975 
L 850 125 
L 275 125 
L 275 4400 
L 1525 4400 
Q 2125 4400 2500 4112 
Q 2875 3825 2875 3175 
Q 2875 2675 2625 2400 
Q 2375 2125 2050 2050 
L 3000 125 
z
M 2300 3175 
Q 2300 3525 2087 3725 
Q 1875 3925 1400 3925 
L 850 3925 
L 850 2450 
L 1550 2450 
Q 1850 2450 2075 2612 
Q 2300 2775 2300 3175 
z
" transform="scale(0.015625)"/>
       <path id="SimHei-65" d="M 2850 1075 
Q 2800 625 2450 350 
Q 2100 75 1625 75 
Q 1025 75 637 462 
Q 250 850 250 1525 
Q 250 2200 637 2587 
Q 1025 2975 1625 2975 
Q 2150 2975 2487 2637 
Q 2825 2300 2825 1525 
L 800 1525 
Q 800 975 1037 750 
Q 1275 525 1625 525 
Q 1900 525 2075 662 
Q 2250 800 2300 1075 
L 2850 1075 
z
M 2250 1925 
Q 2200 2275 2025 2412 
Q 1850 2550 1575 2550 
Q 1325 2550 1125 2412 
Q 925 2275 825 1925 
L 2250 1925 
z
" transform="scale(0.015625)"/>
       <path id="SimHei-64" d="M 2750 125 
L 2250 125 
L 2250 500 
Q 2100 275 1900 175 
Q 1700 75 1425 75 
Q 925 75 575 437 
Q 225 800 225 1525 
Q 225 2250 575 2625 
Q 925 3000 1425 3000 
Q 1700 3000 1900 2887 
Q 2100 2775 2250 2550 
L 2250 4400 
L 2750 4400 
L 2750 125 
z
M 2250 1525 
Q 2250 2000 2037 2275 
Q 1825 2550 1525 2550 
Q 1150 2550 962 2275 
Q 775 2000 775 1525 
Q 775 1050 962 787 
Q 1150 525 1525 525 
Q 1825 525 2037 787 
Q 2250 1050 2250 1525 
z
" transform="scale(0.015625)"/>
       <path id="SimHei-69" d="M 1800 3725 
L 1300 3725 
L 1300 4375 
L 1800 4375 
L 1800 3725 
z
M 1800 125 
L 1300 125 
L 1300 2925 
L 1800 2925 
L 1800 125 
z
" transform="scale(0.015625)"/>
       <path id="SimHei-73" d="M 2750 900 
Q 2750 500 2437 287 
Q 2125 75 1650 75 
Q 1050 75 725 312 
Q 400 550 400 1000 
L 900 1000 
Q 900 700 1112 600 
Q 1325 500 1625 500 
Q 1925 500 2075 612 
Q 2225 725 2225 900 
Q 2225 1025 2100 1150 
Q 1975 1275 1475 1350 
Q 900 1425 687 1637 
Q 475 1850 475 2200 
Q 475 2500 762 2737 
Q 1050 2975 1600 2975 
Q 2100 2975 2387 2750 
Q 2675 2525 2675 2150 
L 2175 2150 
Q 2175 2375 2012 2462 
Q 1850 2550 1600 2550 
Q 1275 2550 1137 2437 
Q 1000 2325 1000 2175 
Q 1000 2000 1125 1900 
Q 1250 1800 1650 1750 
Q 2300 1650 2525 1437 
Q 2750 1225 2750 900 
z
" transform="scale(0.015625)"/>
      </defs>
      <use xlink:href="#SimHei-52"/>
      <use xlink:href="#SimHei-65" x="50"/>
      <use xlink:href="#SimHei-64" x="100"/>
      <use xlink:href="#SimHei-69" x="150"/>
      <use xlink:href="#SimHei-73" x="200"/>
     </g>
    </g>
    <g id="line2d_32">
     <path d="M 65.855 52.765 
L 75.855 52.765 
L 85.855 52.765 
" style="fill: none; stroke: #0000ff; stroke-width: 1.5; stroke-linecap: square"/>
     <g>
      <use xlink:href="#m88c165463a" x="75.855" y="52.765" style="fill: #0000ff; stroke: #0000ff"/>
     </g>
    </g>
    <g id="text_19">
     <!-- MySQL -->
     <g transform="translate(93.855 56.265) scale(0.1 -0.1)">
      <defs>
       <path id="SimHei-4d" d="M 2925 125 
L 2425 125 
L 2425 3175 
L 2375 3175 
L 1775 125 
L 1375 125 
L 775 3175 
L 725 3175 
L 725 125 
L 225 125 
L 225 4400 
L 1000 4400 
L 1550 1575 
L 1600 1575 
L 2150 4400 
L 2925 4400 
L 2925 125 
z
" transform="scale(0.015625)"/>
       <path id="SimHei-79" d="M 2900 2925 
L 1750 -100 
Q 1650 -450 1450 -625 
Q 1250 -800 950 -800 
Q 825 -800 712 -787 
Q 600 -775 500 -725 
L 500 -225 
Q 600 -275 700 -300 
Q 800 -325 875 -325 
Q 1075 -325 1150 -262 
Q 1225 -200 1300 25 
L 200 2925 
L 750 2925 
L 1550 725 
L 1575 725 
L 2350 2925 
L 2900 2925 
z
" transform="scale(0.015625)"/>
       <path id="SimHei-53" d="M 2900 1325 
Q 2900 750 2537 412 
Q 2175 75 1550 75 
Q 925 75 575 425 
Q 225 775 225 1300 
L 225 1475 
L 800 1475 
L 800 1325 
Q 800 950 1025 750 
Q 1250 550 1550 550 
Q 1950 550 2137 762 
Q 2325 975 2325 1275 
Q 2325 1525 2100 1737 
Q 1875 1950 1450 2125 
Q 850 2350 587 2625 
Q 325 2900 325 3275 
Q 325 3800 687 4125 
Q 1050 4450 1550 4450 
Q 2200 4450 2487 4062 
Q 2775 3675 2775 3225 
L 2200 3225 
Q 2225 3500 2050 3725 
Q 1875 3950 1550 3950 
Q 1250 3950 1075 3787 
Q 900 3625 900 3350 
Q 900 3125 1037 2962 
Q 1175 2800 1750 2575 
Q 2300 2350 2600 2037 
Q 2900 1725 2900 1325 
z
" transform="scale(0.015625)"/>
       <path id="SimHei-51" d="M 2950 2275 
Q 2950 1675 2862 1262 
Q 2775 850 2575 600 
L 2775 225 
L 2375 -200 
L 2150 225 
Q 2050 150 1900 112 
Q 1750 75 1575 75 
Q 925 75 550 587 
Q 175 1100 175 2275 
Q 175 3450 550 3950 
Q 925 4450 1575 4450 
Q 2225 4450 2587 3950 
Q 2950 3450 2950 2275 
z
M 2350 2275 
Q 2350 3325 2125 3650 
Q 1900 3975 1575 3975 
Q 1250 3975 1012 3650 
Q 775 3325 775 2275 
Q 775 1225 1012 887 
Q 1250 550 1575 550 
Q 1700 550 1800 587 
Q 1900 625 1950 675 
L 1550 1450 
L 1900 1875 
L 2250 1200 
Q 2300 1450 2325 1650 
Q 2350 1850 2350 2275 
z
" transform="scale(0.015625)"/>
       <path id="SimHei-4c" d="M 2900 125 
L 300 125 
L 300 4400 
L 875 4400 
L 875 600 
L 2900 600 
L 2900 125 
z
" transform="scale(0.015625)"/>
      </defs>
      <use xlink:href="#SimHei-4d"/>
      <use xlink:href="#SimHei-79" x="50"/>
      <use xlink:href="#SimHei-53" x="100"/>
      <use xlink:href="#SimHei-51" x="150"/>
      <use xlink:href="#SimHei-4c" x="200"/>
     </g>
    </g>
   </g>
  </g>
  <g id="axes_2">
   <g id="patch_8">
    <path d="M 588.935 324.17125 
L 1069.2 324.17125 
L 1069.2 27.015 
L 588.935 27.015 
z
" style="fill: #ffffff"/>
   </g>
   <g id="patch_9">
    <path d="M 610.765227 324.17125 
L 643.278332 324.17125 
L 643.278332 207.625999 
L 610.765227 207.625999 
z
" clip-path="url(#p8478c042db)" style="fill: #1f77b4"/>
   </g>
   <g id="patch_10">
    <path d="M 703.659811 324.17125 
L 736.172916 324.17125 
L 736.172916 210.827631 
L 703.659811 210.827631 
z
" clip-path="url(#p8478c042db)" style="fill: #1f77b4"/>
   </g>
   <g id="patch_11">
    <path d="M 796.554396 324.17125 
L 829.0675 324.17125 
L 829.0675 208.901974 
L 796.554396 208.901974 
z
" clip-path="url(#p8478c042db)" style="fill: #1f77b4"/>
   </g>
   <g id="patch_12">
    <path d="M 889.44898 324.17125 
L 921.962084 324.17125 
L 921.962084 214.493135 
L 889.44898 214.493135 
z
" clip-path="url(#p8478c042db)" style="fill: #1f77b4"/>
   </g>
   <g id="patch_13">
    <path d="M 982.343564 324.17125 
L 1014.856668 324.17125 
L 1014.856668 220.385221 
L 982.343564 220.385221 
z
" clip-path="url(#p8478c042db)" style="fill: #1f77b4"/>
   </g>
   <g id="patch_14">
    <path d="M 643.278332 324.17125 
L 675.791436 324.17125 
L 675.791436 132.623912 
L 643.278332 132.623912 
z
" clip-path="url(#p8478c042db)" style="fill: #ff7f0e"/>
   </g>
   <g id="patch_15">
    <path d="M 736.172916 324.17125 
L 768.68602 324.17125 
L 768.68602 119.358505 
L 736.172916 119.358505 
z
" clip-path="url(#p8478c042db)" style="fill: #ff7f0e"/>
   </g>
   <g id="patch_16">
    <path d="M 829.0675 324.17125 
L 861.580604 324.17125 
L 861.580604 90.811361 
L 829.0675 90.811361 
z
" clip-path="url(#p8478c042db)" style="fill: #ff7f0e"/>
   </g>
   <g id="patch_17">
    <path d="M 921.962084 324.17125 
L 954.475189 324.17125 
L 954.475189 114.517948 
L 921.962084 114.517948 
z
" clip-path="url(#p8478c042db)" style="fill: #ff7f0e"/>
   </g>
   <g id="patch_18">
    <path d="M 1014.856668 324.17125 
L 1047.369773 324.17125 
L 1047.369773 41.165298 
L 1014.856668 41.165298 
z
" clip-path="url(#p8478c042db)" style="fill: #ff7f0e"/>
   </g>
   <g id="matplotlib.axis_3">
    <g id="xtick_7">
     <g id="line2d_33">
      <g>
       <use xlink:href="#m97cd26a0bd" x="643.278332" y="324.17125" style="stroke: #000000; stroke-width: 0.8"/>
      </g>
     </g>
     <g id="text_20">
      <!-- 插入 -->
      <g transform="translate(633.278332 339.100938) scale(0.1 -0.1)">
       <use xlink:href="#SimHei-63d2"/>
       <use xlink:href="#SimHei-5165" x="100"/>
      </g>
     </g>
    </g>
    <g id="xtick_8">
     <g id="line2d_34">
      <g>
       <use xlink:href="#m97cd26a0bd" x="736.172916" y="324.17125" style="stroke: #000000; stroke-width: 0.8"/>
      </g>
     </g>
     <g id="text_21">
      <!-- 查询 -->
      <g transform="translate(726.172916 339.218125) scale(0.1 -0.1)">
       <defs>
        <path id="SimHei-67e5" d="M 2950 4375 
Q 2950 4775 2925 5150 
L 3425 5150 
Q 3400 4800 3400 4375 
L 4950 4375 
Q 5300 4375 5800 4400 
L 5800 3925 
Q 5300 3950 4950 3950 
L 4050 3950 
Q 4325 3550 4875 3250 
Q 5425 2950 6125 2775 
Q 5875 2575 5775 2275 
Q 5000 2550 4462 2950 
Q 3925 3350 3550 3950 
L 3400 3950 
L 3400 2575 
L 4975 2575 
Q 4950 2125 4950 1575 
Q 4950 1050 4975 525 
L 1425 525 
Q 1450 1000 1450 1550 
Q 1450 2125 1425 2575 
Q 1100 2375 650 2150 
Q 500 2425 300 2600 
Q 850 2725 1400 3100 
Q 1950 3475 2275 3950 
L 1550 3950 
Q 1100 3950 600 3925 
L 600 4400 
Q 1100 4375 1550 4375 
L 2950 4375 
z
M 5100 0 
Q 5525 0 5925 25 
L 5925 -425 
Q 4975 -400 4600 -400 
L 1425 -400 
Q 975 -400 525 -425 
L 525 25 
Q 1000 0 1425 0 
L 5100 0 
z
M 4500 925 
L 4500 1375 
L 1900 1375 
L 1900 925 
L 4500 925 
z
M 4500 1750 
L 4500 2175 
L 1900 2175 
L 1900 1750 
L 4500 1750 
z
M 2950 2575 
L 2950 3950 
L 2825 3950 
Q 2550 3525 2225 3200 
Q 1900 2875 1450 2575 
L 2950 2575 
z
" transform="scale(0.015625)"/>
        <path id="SimHei-8be2" d="M 3950 5000 
Q 3750 4850 3425 4225 
L 6000 4225 
Q 5975 3825 5975 3225 
L 5975 25 
Q 5975 -350 5700 -462 
Q 5425 -575 4950 -650 
Q 4900 -300 4675 -100 
Q 5175 -75 5337 -37 
Q 5500 0 5525 225 
L 5525 3850 
L 3250 3850 
Q 2950 3350 2850 3175 
L 4800 3175 
Q 4775 2825 4775 1800 
Q 4775 775 4800 250 
L 2725 250 
Q 2750 725 2750 1225 
L 2750 2975 
Q 2550 2675 2350 2425 
Q 2125 2675 1875 2750 
Q 2225 3125 2437 3462 
Q 2650 3800 2900 4287 
Q 3150 4775 3350 5300 
Q 3550 5075 3950 5000 
z
M 1525 3175 
Q 1500 2700 1500 2200 
L 1500 425 
Q 1825 775 2050 1025 
Q 2125 900 2375 625 
Q 2050 350 1750 50 
Q 1450 -250 1225 -575 
Q 1025 -300 775 -125 
Q 1025 125 1025 400 
L 1025 2750 
L 800 2750 
Q 600 2750 225 2725 
L 225 3200 
Q 600 3175 800 3175 
L 1525 3175 
z
M 4300 1900 
L 4300 2800 
L 3225 2800 
L 3225 1900 
L 4300 1900 
z
M 4300 650 
L 4300 1525 
L 3225 1525 
L 3225 650 
L 4300 650 
z
M 1175 5075 
Q 1325 4850 1825 4075 
Q 1575 3975 1300 3825 
Q 925 4500 675 4825 
Q 950 4950 1175 5075 
z
" transform="scale(0.015625)"/>
       </defs>
       <use xlink:href="#SimHei-67e5"/>
       <use xlink:href="#SimHei-8be2" x="100"/>
      </g>
     </g>
    </g>
    <g id="xtick_9">
     <g id="line2d_35">
      <g>
       <use xlink:href="#m97cd26a0bd" x="829.0675" y="324.17125" style="stroke: #000000; stroke-width: 0.8"/>
      </g>
     </g>
     <g id="text_22">
      <!-- 更新 -->
      <g transform="translate(819.0675 339.257188) scale(0.1 -0.1)">
       <defs>
        <path id="SimHei-66f4" d="M 5175 4750 
Q 5400 4750 5800 4775 
L 5800 4325 
Q 5475 4350 5175 4350 
L 3475 4350 
L 3475 3825 
L 5300 3825 
Q 5275 3400 5275 2675 
Q 5275 1975 5300 1550 
L 3400 1550 
Q 3325 1025 3050 575 
Q 3425 350 4137 175 
Q 4850 0 5237 -25 
Q 5625 -50 6000 -50 
Q 5850 -175 5750 -575 
Q 5075 -525 4250 -337 
Q 3425 -150 2775 200 
Q 2525 -25 2037 -262 
Q 1550 -500 600 -650 
Q 500 -375 350 -175 
Q 1075 -150 1612 37 
Q 2150 225 2400 450 
Q 1925 775 1400 1275 
Q 1550 1375 1700 1550 
L 1100 1550 
Q 1125 2025 1125 2725 
Q 1125 3450 1100 3825 
L 3000 3825 
L 3000 4350 
L 1450 4350 
Q 1050 4350 600 4325 
L 600 4775 
Q 1050 4750 1425 4750 
L 5175 4750 
z
M 2975 1975 
Q 3000 2250 3000 2525 
L 1625 2525 
L 1625 1975 
L 2975 1975 
z
M 3000 2925 
L 3000 3450 
L 1625 3450 
L 1625 2925 
L 3000 2925 
z
M 4775 1975 
L 4775 2525 
L 3475 2525 
Q 3475 2350 3450 1975 
L 4775 1975 
z
M 4775 2925 
L 4775 3450 
L 3475 3450 
L 3475 2925 
L 4775 2925 
z
M 1775 1550 
Q 2225 1075 2675 800 
Q 2875 1175 2925 1550 
L 1775 1550 
z
" transform="scale(0.015625)"/>
        <path id="SimHei-65b0" d="M 6125 4650 
Q 5750 4650 4275 4500 
L 4275 3225 
L 5575 3225 
Q 5850 3225 6150 3250 
L 6150 2775 
Q 5800 2800 5550 2800 
L 5550 225 
Q 5550 -200 5575 -675 
L 5050 -675 
Q 5075 -200 5075 200 
L 5075 2800 
L 4275 2800 
Q 4275 2175 4225 1600 
Q 4175 1025 4012 462 
Q 3850 -100 3525 -700 
Q 3275 -550 3025 -450 
Q 3425 125 3587 762 
Q 3750 1400 3775 1875 
Q 3800 2350 3800 3300 
Q 3800 4275 3775 4850 
Q 4900 4900 5800 5200 
Q 6000 4800 6125 4650 
z
M 2975 3825 
Q 2800 3725 2575 3050 
Q 3000 3050 3450 3075 
L 3450 2575 
Q 3025 2600 2175 2600 
L 2175 1975 
Q 2950 1975 3400 2000 
L 3400 1500 
Q 2950 1525 2175 1525 
L 2175 0 
Q 2175 -375 1937 -500 
Q 1700 -625 1325 -625 
Q 1225 -325 1075 -75 
Q 1425 -100 1562 -75 
Q 1700 -50 1700 150 
L 1700 1525 
Q 900 1525 450 1500 
L 450 2000 
Q 925 1975 1700 1975 
L 1700 2600 
Q 775 2600 325 2575 
L 325 3075 
Q 775 3050 1175 3050 
L 2125 3050 
Q 2325 3650 2425 3975 
Q 2625 3925 2975 3825 
z
M 2125 5275 
Q 2250 4750 2275 4550 
Q 2850 4550 3350 4575 
L 3350 4075 
Q 2825 4100 2500 4100 
L 1300 4100 
Q 875 4100 475 4075 
L 475 4575 
Q 900 4550 1300 4550 
L 1750 4550 
Q 1700 4825 1600 5125 
Q 1850 5200 2125 5275 
z
M 1525 1050 
Q 1375 875 1175 612 
Q 975 350 600 -125 
Q 425 50 225 175 
Q 750 750 1050 1375 
Q 1300 1175 1525 1050 
z
M 2725 1300 
Q 3025 900 3275 475 
Q 3025 350 2875 150 
Q 2675 600 2350 1025 
Q 2525 1175 2725 1300 
z
M 1275 3950 
Q 1450 3600 1575 3250 
Q 1350 3200 1150 3100 
Q 1025 3475 875 3775 
Q 1050 3875 1275 3950 
z
" transform="scale(0.015625)"/>
       </defs>
       <use xlink:href="#SimHei-66f4"/>
       <use xlink:href="#SimHei-65b0" x="100"/>
      </g>
     </g>
    </g>
    <g id="xtick_10">
     <g id="line2d_36">
      <g>
       <use xlink:href="#m97cd26a0bd" x="921.962084" y="324.17125" style="stroke: #000000; stroke-width: 0.8"/>
      </g>
     </g>
     <g id="text_23">
      <!-- 删除 -->
      <g transform="translate(911.962084 339.257188) scale(0.1 -0.1)">
       <defs>
        <path id="SimHei-5220" d="M 800 2900 
Q 800 4575 775 4975 
L 2200 4975 
Q 2175 4750 2175 2900 
L 2625 2900 
Q 2625 4575 2600 4975 
L 4025 4975 
Q 4000 4600 4000 2900 
Q 4150 2900 4350 2925 
L 4350 2475 
Q 4150 2500 4000 2500 
L 4000 -125 
Q 4000 -375 3812 -450 
Q 3625 -525 3275 -600 
Q 3250 -350 3100 -50 
Q 3425 -100 3500 -87 
Q 3575 -75 3575 100 
L 3575 2500 
L 3050 2500 
Q 3050 1875 3037 1462 
Q 3025 1050 2975 600 
Q 2925 150 2675 -400 
Q 2475 -225 2225 -100 
Q 2425 175 2500 500 
Q 2575 825 2600 1250 
Q 2625 1675 2625 2500 
L 2175 2500 
L 2175 0 
Q 2175 -300 2025 -375 
Q 1875 -450 1425 -525 
Q 1375 -250 1225 0 
Q 1575 -25 1662 0 
Q 1750 25 1750 175 
L 1750 2500 
L 1225 2500 
Q 1250 1925 1175 1362 
Q 1100 800 975 350 
Q 850 -100 625 -550 
Q 450 -350 200 -275 
Q 500 150 650 825 
Q 800 1500 800 2500 
Q 525 2500 325 2475 
L 325 2925 
Q 525 2900 800 2900 
z
M 5975 5100 
Q 5950 4750 5950 4375 
L 5950 0 
Q 5950 -375 5725 -487 
Q 5500 -600 5050 -650 
Q 5000 -300 4875 -50 
Q 5325 -100 5412 -62 
Q 5500 -25 5500 150 
L 5500 4375 
Q 5500 4775 5475 5100 
L 5975 5100 
z
M 5025 4575 
Q 5000 4250 5000 3850 
L 5000 1750 
Q 5000 1325 5025 900 
L 4525 900 
Q 4550 1300 4550 1750 
L 4550 3850 
Q 4550 4250 4525 4575 
L 5025 4575 
z
M 1750 2900 
L 1750 4600 
L 1225 4600 
L 1225 2900 
L 1750 2900 
z
M 3575 2900 
L 3575 4600 
L 3050 4600 
L 3050 2900 
L 3575 2900 
z
" transform="scale(0.015625)"/>
        <path id="SimHei-9664" d="M 4325 2850 
L 4325 2100 
L 4900 2100 
Q 5250 2100 5725 2125 
L 5725 1675 
Q 5275 1700 4925 1700 
L 4325 1700 
L 4325 75 
Q 4325 -375 4125 -475 
Q 3925 -575 3450 -675 
Q 3425 -400 3250 -75 
Q 3650 -75 3775 -50 
Q 3900 -25 3900 250 
L 3900 1700 
L 3425 1700 
Q 2975 1700 2550 1675 
L 2550 2125 
Q 2950 2100 3450 2100 
L 3900 2100 
L 3900 2850 
L 3625 2850 
Q 3375 2850 3100 2825 
L 3100 3200 
Q 2800 2825 2625 2675 
Q 2450 2850 2200 3000 
Q 2850 3500 3262 4125 
Q 3675 4750 3875 5300 
Q 4100 5175 4425 5050 
Q 4375 4975 4275 4850 
Q 4625 4275 5025 3925 
Q 5425 3575 6200 3250 
Q 5975 3075 5825 2750 
Q 5525 2900 5125 3225 
L 5125 2825 
Q 4800 2850 4525 2850 
L 4325 2850 
z
M 2500 4850 
Q 2350 4475 1800 2950 
Q 2175 2425 2275 2150 
Q 2375 1875 2375 1550 
Q 2375 1225 2150 1000 
Q 1925 775 1450 675 
Q 1375 950 1225 1225 
Q 1725 1275 1850 1437 
Q 1975 1600 1862 1975 
Q 1750 2350 1300 2950 
Q 1650 3625 1875 4450 
L 1025 4450 
L 1025 -625 
L 550 -625 
Q 575 -25 575 925 
L 575 3800 
Q 575 4375 550 4850 
L 2500 4850 
z
M 5050 3275 
Q 4375 3875 4025 4500 
Q 3600 3775 3150 3275 
L 5050 3275 
z
M 5050 1250 
Q 5275 975 5512 687 
Q 5750 400 6075 100 
Q 5800 0 5600 -225 
Q 5425 50 5137 412 
Q 4850 775 4650 950 
L 5050 1250 
z
M 3525 975 
Q 3350 800 3100 462 
Q 2850 125 2550 -225 
Q 2350 -50 2150 75 
Q 2425 325 2650 612 
Q 2875 900 3075 1275 
Q 3275 1100 3525 975 
z
" transform="scale(0.015625)"/>
       </defs>
       <use xlink:href="#SimHei-5220"/>
       <use xlink:href="#SimHei-9664" x="100"/>
      </g>
     </g>
    </g>
    <g id="xtick_11">
     <g id="line2d_37">
      <g>
       <use xlink:href="#m97cd26a0bd" x="1014.856668" y="324.17125" style="stroke: #000000; stroke-width: 0.8"/>
      </g>
     </g>
     <g id="text_24">
      <!-- 批量 -->
      <g transform="translate(1004.856668 338.98375) scale(0.1 -0.1)">
       <defs>
        <path id="SimHei-6279" d="M 625 -75 
Q 1025 -50 1137 -12 
Q 1250 25 1250 175 
L 1250 1575 
Q 775 1375 525 1200 
Q 475 1425 250 1700 
Q 600 1775 1250 2050 
L 1250 3325 
Q 725 3325 400 3300 
L 400 3775 
Q 725 3750 1250 3750 
Q 1250 4550 1225 5125 
L 1775 5125 
Q 1725 4850 1725 3750 
Q 1975 3750 2350 3775 
L 2350 3300 
Q 2000 3325 1725 3325 
L 1725 2200 
Q 1825 2250 2300 2450 
Q 2300 2250 2325 2025 
Q 1950 1850 1725 1750 
L 1725 -25 
Q 1725 -300 1512 -412 
Q 1300 -525 825 -650 
Q 750 -250 625 -75 
z
M 6175 3250 
Q 5800 3000 4875 2275 
L 4875 175 
Q 4875 -75 5075 -75 
L 5475 -75 
Q 5550 -25 5600 87 
Q 5650 200 5650 600 
Q 5875 475 6175 425 
Q 6050 -175 5925 -287 
Q 5800 -400 5600 -425 
L 4900 -425 
Q 4425 -425 4400 0 
L 4400 4525 
Q 4400 4850 4375 5150 
L 4900 5150 
Q 4875 4875 4875 4600 
L 4875 2775 
Q 5275 3075 5725 3625 
Q 5950 3400 6175 3250 
z
M 2575 -75 
Q 2750 75 2750 300 
L 2750 4425 
Q 2750 4700 2725 4950 
L 3250 4950 
Q 3200 4675 3200 4425 
L 3200 3000 
Q 3775 3000 4050 3025 
L 4050 2550 
Q 3750 2575 3200 2575 
L 3200 225 
Q 3425 325 3925 700 
Q 3950 475 4050 250 
Q 3825 125 3437 -87 
Q 3050 -300 2825 -525 
L 2575 -75 
z
" transform="scale(0.015625)"/>
       </defs>
       <use xlink:href="#SimHei-6279"/>
       <use xlink:href="#SimHei-91cf" x="100"/>
      </g>
     </g>
    </g>
    <g id="text_25">
     <!-- 操作类型 -->
     <g transform="translate(809.0675 352.632188) scale(0.1 -0.1)">
      <defs>
       <path id="SimHei-64cd" d="M 3900 1500 
Q 3900 1675 3875 1950 
L 4350 1950 
Q 4325 1675 4325 1500 
Q 5725 1500 6125 1525 
L 6125 1075 
Q 5675 1100 4725 1100 
Q 5200 325 6175 75 
Q 5925 -150 5800 -400 
Q 4700 125 4325 1075 
Q 4325 -200 4350 -625 
L 3875 -625 
Q 3900 -175 3900 1025 
Q 3400 150 2450 -500 
Q 2275 -275 2025 -100 
Q 2925 300 3425 1100 
Q 2575 1100 2200 1050 
L 2200 1525 
Q 2600 1500 3900 1500 
z
M 1200 3900 
Q 1200 4900 1175 5200 
L 1675 5200 
Q 1600 4875 1625 3900 
Q 1900 3900 2275 3925 
L 2275 3475 
Q 1875 3500 1625 3500 
L 1625 2425 
Q 1900 2525 2225 2675 
Q 2225 2400 2250 2250 
Q 1900 2075 1625 1975 
L 1625 175 
Q 1625 -275 1412 -375 
Q 1200 -475 725 -575 
Q 650 -250 500 0 
Q 900 0 1050 25 
Q 1200 50 1200 275 
L 1200 1800 
Q 900 1700 450 1400 
Q 350 1700 250 1950 
Q 550 2000 1200 2250 
L 1200 3500 
Q 725 3500 350 3475 
L 350 3925 
Q 725 3900 1200 3900 
z
M 5250 5100 
Q 5225 4775 5225 4450 
Q 5225 4125 5250 3775 
L 2950 3775 
Q 2975 4150 2975 4450 
Q 2975 4775 2950 5100 
L 5250 5100 
z
M 5900 3350 
Q 5875 3025 5875 2675 
Q 5875 2350 5900 2000 
L 4300 2000 
Q 4325 2350 4325 2675 
Q 4325 3025 4300 3350 
L 5900 3350 
z
M 2375 2000 
Q 2400 2350 2400 2675 
Q 2400 3025 2375 3350 
L 3900 3350 
Q 3875 3025 3875 2675 
Q 3875 2350 3900 2000 
L 2375 2000 
z
M 4800 4150 
L 4800 4750 
L 3375 4750 
L 3375 4150 
L 4800 4150 
z
M 5475 2375 
L 5475 2975 
L 4700 2975 
L 4700 2375 
L 5475 2375 
z
M 3475 2375 
L 3475 2975 
L 2775 2975 
L 2775 2375 
L 3475 2375 
z
" transform="scale(0.015625)"/>
       <path id="SimHei-4f5c" d="M 4075 5050 
Q 3825 4850 3525 4100 
L 5175 4100 
Q 5725 4100 6050 4125 
L 6050 3675 
Q 5725 3700 5175 3700 
L 4025 3700 
L 4025 2725 
L 5050 2725 
Q 5475 2725 5750 2750 
L 5750 2275 
Q 5425 2300 5050 2300 
L 4025 2300 
L 4025 1175 
L 5100 1175 
Q 5600 1175 5925 1200 
L 5925 725 
Q 5600 750 5125 750 
L 4025 750 
L 4025 275 
Q 4025 -425 4050 -675 
L 3525 -675 
Q 3550 -400 3550 75 
L 3550 3700 
L 3300 3700 
Q 2925 3050 2575 2575 
Q 2300 2825 2100 2900 
Q 2450 3250 2825 3900 
Q 3200 4550 3425 5300 
Q 3800 5125 4075 5050 
z
M 2325 4950 
Q 2100 4775 1750 3875 
L 1750 675 
Q 1750 -125 1775 -600 
L 1200 -600 
Q 1225 -150 1225 650 
L 1225 3000 
Q 875 2425 550 2025 
Q 350 2325 200 2450 
Q 525 2800 987 3612 
Q 1450 4425 1675 5275 
Q 1950 5100 2325 4950 
z
" transform="scale(0.015625)"/>
       <path id="SimHei-7c7b" d="M 2125 3875 
Q 1750 4375 1325 4725 
Q 1525 4875 1675 5050 
L 2525 4225 
Q 2400 4125 2200 3875 
L 3025 3875 
L 3025 4550 
Q 3025 4900 3000 5125 
L 3525 5125 
Q 3500 4850 3500 4550 
L 3500 3875 
L 4325 3875 
Q 4125 4050 4000 4150 
Q 4450 4575 4800 5175 
Q 5000 5000 5275 4825 
Q 5100 4675 4912 4475 
Q 4725 4275 4400 3875 
L 5025 3875 
Q 5425 3875 5900 3900 
L 5900 3450 
Q 5425 3475 5025 3475 
L 3500 3475 
L 3500 3050 
Q 3500 2650 3525 2175 
L 3175 2175 
Q 3475 2075 3675 2000 
Q 3575 1875 3525 1575 
L 5025 1575 
Q 5525 1575 6025 1600 
L 6025 1150 
Q 5550 1175 5050 1175 
L 3675 1175 
Q 4050 600 4712 275 
Q 5375 -50 6050 -175 
Q 5850 -350 5725 -675 
Q 4975 -450 4350 -37 
Q 3725 375 3300 950 
Q 3050 350 2425 -50 
Q 1800 -450 775 -700 
Q 650 -425 475 -225 
Q 1375 -100 2012 225 
Q 2650 550 2900 1175 
L 1625 1175 
Q 1025 1175 525 1150 
L 525 1600 
Q 950 1575 1600 1575 
L 3025 1575 
Q 3075 1825 3100 2175 
L 3000 2175 
Q 3025 2675 3025 3050 
L 3025 3325 
Q 2725 2900 2237 2550 
Q 1750 2200 925 1825 
Q 850 2025 625 2275 
Q 1175 2400 1725 2737 
Q 2275 3075 2600 3475 
L 1550 3475 
Q 1050 3475 600 3425 
L 600 3900 
Q 1075 3875 1550 3875 
L 2125 3875 
z
M 4100 3450 
Q 4850 3000 5800 2350 
Q 5575 2125 5425 1925 
Q 4700 2550 3825 3075 
Q 3975 3250 4100 3450 
z
" transform="scale(0.015625)"/>
       <path id="SimHei-578b" d="M 2625 1775 
Q 2650 2325 2650 2700 
L 2650 3000 
L 1825 3000 
Q 1725 2375 1425 2000 
Q 1125 1625 775 1425 
Q 650 1650 375 1900 
Q 850 2075 1062 2362 
Q 1275 2650 1350 3000 
Q 900 3000 375 2975 
L 375 3450 
Q 925 3425 1400 3425 
Q 1425 3950 1425 4475 
Q 1075 4475 700 4450 
L 700 4900 
Q 1050 4875 1525 4875 
L 3000 4875 
Q 3275 4875 3650 4900 
L 3650 4450 
Q 3325 4475 3125 4475 
L 3125 3425 
Q 3450 3425 3825 3450 
L 3825 2975 
Q 3450 3000 3125 3000 
L 3125 2675 
Q 3125 2225 3150 1775 
L 2625 1775 
z
M 3000 1175 
Q 3000 1375 2975 1725 
L 3500 1725 
Q 3475 1375 3475 1175 
L 4550 1175 
Q 5050 1175 5450 1200 
L 5450 725 
Q 4975 750 4550 750 
L 3475 750 
L 3475 -50 
L 5275 -50 
Q 5700 -50 6100 -25 
L 6100 -500 
Q 5725 -475 5300 -475 
L 1250 -475 
Q 775 -475 400 -500 
L 400 -25 
Q 775 -50 1250 -50 
L 3000 -50 
L 3000 750 
L 2025 750 
Q 1500 750 975 725 
L 1050 1200 
Q 1500 1175 2025 1175 
L 3000 1175 
z
M 5775 5200 
Q 5750 4775 5750 4325 
L 5750 2400 
Q 5775 1950 5612 1775 
Q 5450 1600 4900 1525 
Q 4825 1775 4675 2100 
Q 5175 2075 5237 2150 
Q 5300 2225 5300 2525 
L 5300 4325 
Q 5300 4775 5275 5200 
L 5775 5200 
z
M 4600 4750 
Q 4575 4450 4575 3975 
L 4575 3200 
Q 4575 2825 4600 2425 
L 4100 2425 
Q 4125 2825 4125 3200 
L 4125 3975 
Q 4125 4450 4100 4750 
L 4600 4750 
z
M 2650 3425 
L 2650 4475 
L 1875 4475 
Q 1850 3750 1850 3425 
L 2650 3425 
z
" transform="scale(0.015625)"/>
      </defs>
      <use xlink:href="#SimHei-64cd"/>
      <use xlink:href="#SimHei-4f5c" x="100"/>
      <use xlink:href="#SimHei-7c7b" x="200"/>
      <use xlink:href="#SimHei-578b" x="300"/>
     </g>
    </g>
   </g>
   <g id="matplotlib.axis_4">
    <g id="ytick_9">
     <g id="line2d_38">
      <g>
       <use xlink:href="#mc5b9877437" x="588.935" y="324.17125" style="stroke: #000000; stroke-width: 0.8"/>
      </g>
     </g>
     <g id="text_26">
      <!-- 0.00 -->
      <g transform="translate(561.935 327.60875) scale(0.1 -0.1)">
       <use xlink:href="#SimHei-30"/>
       <use xlink:href="#SimHei-2e" x="50"/>
       <use xlink:href="#SimHei-30" x="100"/>
       <use xlink:href="#SimHei-30" x="150"/>
      </g>
     </g>
    </g>
    <g id="ytick_10">
     <g id="line2d_39">
      <g>
       <use xlink:href="#mc5b9877437" x="588.935" y="269.054606" style="stroke: #000000; stroke-width: 0.8"/>
      </g>
     </g>
     <g id="text_27">
      <!-- 0.05 -->
      <g transform="translate(561.935 272.492106) scale(0.1 -0.1)">
       <defs>
        <path id="SimHei-35" d="M 550 1325 
Q 725 650 1150 575 
Q 1575 500 1837 662 
Q 2100 825 2212 1087 
Q 2325 1350 2312 1675 
Q 2300 2000 2137 2225 
Q 1975 2450 1725 2525 
Q 1475 2600 1162 2525 
Q 850 2450 650 2175 
L 225 2225 
Q 275 2375 700 4375 
L 2675 4375 
L 2675 3925 
L 1075 3925 
Q 950 3250 825 2850 
Q 1200 3025 1525 3012 
Q 1850 3000 2150 2862 
Q 2450 2725 2587 2487 
Q 2725 2250 2787 2012 
Q 2850 1775 2837 1500 
Q 2825 1225 2725 937 
Q 2625 650 2425 462 
Q 2225 275 1937 162 
Q 1650 50 1275 75 
Q 900 100 562 350 
Q 225 600 100 1200 
L 550 1325 
z
" transform="scale(0.015625)"/>
       </defs>
       <use xlink:href="#SimHei-30"/>
       <use xlink:href="#SimHei-2e" x="50"/>
       <use xlink:href="#SimHei-30" x="100"/>
       <use xlink:href="#SimHei-35" x="150"/>
      </g>
     </g>
    </g>
    <g id="ytick_11">
     <g id="line2d_40">
      <g>
       <use xlink:href="#mc5b9877437" x="588.935" y="213.937961" style="stroke: #000000; stroke-width: 0.8"/>
      </g>
     </g>
     <g id="text_28">
      <!-- 0.10 -->
      <g transform="translate(561.935 217.375461) scale(0.1 -0.1)">
       <use xlink:href="#SimHei-30"/>
       <use xlink:href="#SimHei-2e" x="50"/>
       <use xlink:href="#SimHei-31" x="100"/>
       <use xlink:href="#SimHei-30" x="150"/>
      </g>
     </g>
    </g>
    <g id="ytick_12">
     <g id="line2d_41">
      <g>
       <use xlink:href="#mc5b9877437" x="588.935" y="158.821317" style="stroke: #000000; stroke-width: 0.8"/>
      </g>
     </g>
     <g id="text_29">
      <!-- 0.15 -->
      <g transform="translate(561.935 162.258817) scale(0.1 -0.1)">
       <use xlink:href="#SimHei-30"/>
       <use xlink:href="#SimHei-2e" x="50"/>
       <use xlink:href="#SimHei-31" x="100"/>
       <use xlink:href="#SimHei-35" x="150"/>
      </g>
     </g>
    </g>
    <g id="ytick_13">
     <g id="line2d_42">
      <g>
       <use xlink:href="#mc5b9877437" x="588.935" y="103.704672" style="stroke: #000000; stroke-width: 0.8"/>
      </g>
     </g>
     <g id="text_30">
      <!-- 0.20 -->
      <g transform="translate(561.935 107.142172) scale(0.1 -0.1)">
       <use xlink:href="#SimHei-30"/>
       <use xlink:href="#SimHei-2e" x="50"/>
       <use xlink:href="#SimHei-32" x="100"/>
       <use xlink:href="#SimHei-30" x="150"/>
      </g>
     </g>
    </g>
    <g id="ytick_14">
     <g id="line2d_43">
      <g>
       <use xlink:href="#mc5b9877437" x="588.935" y="48.588028" style="stroke: #000000; stroke-width: 0.8"/>
      </g>
     </g>
     <g id="text_31">
      <!-- 0.25 -->
      <g transform="translate(561.935 52.025528) scale(0.1 -0.1)">
       <use xlink:href="#SimHei-30"/>
       <use xlink:href="#SimHei-2e" x="50"/>
       <use xlink:href="#SimHei-32" x="100"/>
       <use xlink:href="#SimHei-35" x="150"/>
      </g>
     </g>
    </g>
    <g id="text_32">
     <!-- 执行时间 (秒) -->
     <g transform="translate(556.685 208.093125) rotate(-90) scale(0.1 -0.1)">
      <use xlink:href="#SimHei-6267"/>
      <use xlink:href="#SimHei-884c" x="100"/>
      <use xlink:href="#SimHei-65f6" x="200"/>
      <use xlink:href="#SimHei-95f4" x="300"/>
      <use xlink:href="#SimHei-20" x="400"/>
      <use xlink:href="#SimHei-28" x="450"/>
      <use xlink:href="#SimHei-79d2" x="500"/>
      <use xlink:href="#SimHei-29" x="600"/>
     </g>
    </g>
   </g>
   <g id="patch_19">
    <path d="M 588.935 324.17125 
L 588.935 27.015 
" style="fill: none; stroke: #000000; stroke-width: 0.8; stroke-linejoin: miter; stroke-linecap: square"/>
   </g>
   <g id="patch_20">
    <path d="M 1069.2 324.17125 
L 1069.2 27.015 
" style="fill: none; stroke: #000000; stroke-width: 0.8; stroke-linejoin: miter; stroke-linecap: square"/>
   </g>
   <g id="patch_21">
    <path d="M 588.935 324.17125 
L 1069.2 324.17125 
" style="fill: none; stroke: #000000; stroke-width: 0.8; stroke-linejoin: miter; stroke-linecap: square"/>
   </g>
   <g id="patch_22">
    <path d="M 588.935 27.015 
L 1069.2 27.015 
" style="fill: none; stroke: #000000; stroke-width: 0.8; stroke-linejoin: miter; stroke-linecap: square"/>
   </g>
   <g id="text_33">
    <!-- 不同操作的性能对比 -->
    <g transform="translate(775.0675 21.015) scale(0.12 -0.12)">
     <defs>
      <path id="SimHei-5bf9" d="M 525 4250 
Q 900 4225 1400 4225 
L 2825 4225 
Q 2575 2625 2200 1750 
Q 2825 875 3125 400 
Q 2950 275 2725 75 
Q 2200 975 1950 1300 
Q 1650 775 1350 425 
Q 1050 75 600 -350 
Q 425 -125 200 -25 
Q 625 275 975 675 
Q 1325 1075 1650 1700 
Q 1050 2425 550 2900 
Q 700 3025 900 3225 
Q 1625 2425 1875 2150 
Q 2200 3050 2300 3825 
L 1400 3825 
Q 900 3825 525 3800 
L 525 4250 
z
M 2925 3700 
Q 3525 3675 3750 3675 
L 4825 3675 
L 4825 4425 
Q 4825 4750 4775 5125 
L 5350 5125 
Q 5325 4825 5325 4375 
L 5325 3675 
Q 5575 3675 6150 3700 
L 6150 3250 
Q 5575 3275 5325 3275 
L 5325 125 
Q 5350 -350 5012 -475 
Q 4675 -600 4250 -650 
Q 4175 -350 4025 -100 
Q 4575 -100 4712 -37 
Q 4850 25 4825 325 
L 4825 3275 
L 3775 3275 
Q 3550 3275 2925 3225 
L 2925 3700 
z
M 3450 2725 
Q 3875 1975 4175 1325 
Q 3850 1200 3700 1075 
Q 3475 1750 3050 2475 
Q 3225 2550 3450 2725 
z
" transform="scale(0.015625)"/>
      <path id="SimHei-6bd4" d="M 3775 5100 
Q 3750 4575 3750 4100 
L 3750 3050 
Q 4925 3600 5475 4175 
Q 5675 3900 5900 3675 
Q 5600 3500 5037 3187 
Q 4475 2875 3750 2550 
L 3750 450 
Q 3750 100 4050 100 
L 5000 100 
Q 5175 100 5262 250 
Q 5350 400 5450 900 
Q 5650 775 6025 675 
Q 5850 0 5650 -175 
Q 5450 -350 5225 -350 
L 3900 -350 
Q 3250 -350 3250 275 
L 3250 4000 
Q 3250 4550 3225 5100 
L 3775 5100 
z
M 1275 4975 
Q 1250 4575 1250 4000 
L 1250 3150 
L 1850 3150 
Q 2325 3150 2875 3175 
L 2875 2650 
Q 2325 2675 1850 2675 
L 1250 2675 
L 1250 475 
Q 1650 650 1962 812 
Q 2275 975 2850 1275 
Q 2900 950 2950 750 
Q 2375 475 1762 175 
Q 1150 -125 925 -325 
Q 750 -100 575 200 
Q 700 300 750 600 
L 750 3950 
Q 750 4550 725 4975 
L 1275 4975 
z
" transform="scale(0.015625)"/>
     </defs>
     <use xlink:href="#SimHei-4e0d"/>
     <use xlink:href="#SimHei-540c" x="100"/>
     <use xlink:href="#SimHei-64cd" x="200"/>
     <use xlink:href="#SimHei-4f5c" x="300"/>
     <use xlink:href="#SimHei-7684" x="400"/>
     <use xlink:href="#SimHei-6027" x="500"/>
     <use xlink:href="#SimHei-80fd" x="600"/>
     <use xlink:href="#SimHei-5bf9" x="700"/>
     <use xlink:href="#SimHei-6bd4" x="800"/>
    </g>
   </g>
   <g id="legend_2">
    <g id="patch_23">
     <path d="M 595.935 61.515 
L 652.935 61.515 
Q 654.935 61.515 654.935 59.515 
L 654.935 34.015 
Q 654.935 32.015 652.935 32.015 
L 595.935 32.015 
Q 593.935 32.015 593.935 34.015 
L 593.935 59.515 
Q 593.935 61.515 595.935 61.515 
z
" style="fill: #ffffff; opacity: 0.8; stroke: #cccccc; stroke-linejoin: miter"/>
    </g>
    <g id="patch_24">
     <path d="M 597.935 43.015 
L 617.935 43.015 
L 617.935 36.015 
L 597.935 36.015 
z
" style="fill: #1f77b4"/>
    </g>
    <g id="text_34">
     <!-- Redis -->
     <g transform="translate(625.935 43.015) scale(0.1 -0.1)">
      <use xlink:href="#SimHei-52"/>
      <use xlink:href="#SimHei-65" x="50"/>
      <use xlink:href="#SimHei-64" x="100"/>
      <use xlink:href="#SimHei-69" x="150"/>
      <use xlink:href="#SimHei-73" x="200"/>
     </g>
    </g>
    <g id="patch_25">
     <path d="M 597.935 56.265 
L 617.935 56.265 
L 617.935 49.265 
L 597.935 49.265 
z
" style="fill: #ff7f0e"/>
    </g>
    <g id="text_35">
     <!-- MySQL -->
     <g transform="translate(625.935 56.265) scale(0.1 -0.1)">
      <use xlink:href="#SimHei-4d"/>
      <use xlink:href="#SimHei-79" x="50"/>
      <use xlink:href="#SimHei-53" x="100"/>
      <use xlink:href="#SimHei-51" x="150"/>
      <use xlink:href="#SimHei-4c" x="200"/>
     </g>
    </g>
   </g>
  </g>
  <g id="axes_3">
   <g id="patch_26">
    <path d="M 56.855 678.61375 
L 537.12 678.61375 
L 537.12 381.4575 
L 56.855 381.4575 
z
" style="fill: #ffffff"/>
   </g>
   <g id="patch_27">
    <path d="M 78.685227 678.61375 
L 272.731692 678.61375 
L 272.731692 518.464674 
L 78.685227 518.464674 
z
" clip-path="url(#pff326af4bd)" style="fill: #1f77b4"/>
   </g>
   <g id="patch_28">
    <path d="M 321.243308 678.61375 
L 515.289773 678.61375 
L 515.289773 395.607798 
L 321.243308 395.607798 
z
" clip-path="url(#pff326af4bd)" style="fill: #1f77b4"/>
   </g>
   <g id="matplotlib.axis_5">
    <g id="xtick_12">
     <g id="line2d_44">
      <g>
       <use xlink:href="#m97cd26a0bd" x="175.70846" y="678.61375" style="stroke: #000000; stroke-width: 0.8"/>
      </g>
     </g>
     <g id="text_36">
      <!-- Redis -->
      <g transform="translate(163.20846 692.48875) scale(0.1 -0.1)">
       <use xlink:href="#SimHei-52"/>
       <use xlink:href="#SimHei-65" x="50"/>
       <use xlink:href="#SimHei-64" x="100"/>
       <use xlink:href="#SimHei-69" x="150"/>
       <use xlink:href="#SimHei-73" x="200"/>
      </g>
     </g>
    </g>
    <g id="xtick_13">
     <g id="line2d_45">
      <g>
       <use xlink:href="#m97cd26a0bd" x="418.26654" y="678.61375" style="stroke: #000000; stroke-width: 0.8"/>
      </g>
     </g>
     <g id="text_37">
      <!-- MySQL -->
      <g transform="translate(405.76654 692.566875) scale(0.1 -0.1)">
       <use xlink:href="#SimHei-4d"/>
       <use xlink:href="#SimHei-79" x="50"/>
       <use xlink:href="#SimHei-53" x="100"/>
       <use xlink:href="#SimHei-51" x="150"/>
       <use xlink:href="#SimHei-4c" x="200"/>
      </g>
     </g>
    </g>
    <g id="text_38">
     <!-- 数据库 -->
     <g transform="translate(281.9875 705.824687) scale(0.1 -0.1)">
      <defs>
       <path id="SimHei-5e93" d="M 2825 3300 
Q 3050 3750 3125 4025 
Q 3425 3875 3675 3800 
Q 3500 3600 3325 3300 
L 4875 3300 
Q 5300 3300 5725 3325 
L 5725 2900 
Q 5325 2925 4850 2925 
L 3150 2925 
Q 2775 2325 2525 1975 
L 3575 1975 
Q 3575 2250 3550 2600 
L 4075 2600 
Q 4050 2275 4050 1975 
L 4850 1975 
Q 5250 1975 5525 2000 
L 5525 1550 
Q 5300 1575 4825 1575 
L 4050 1575 
L 4050 850 
L 5200 850 
Q 5600 850 6025 875 
L 6025 425 
Q 5625 450 5200 450 
L 4050 450 
L 4050 -25 
Q 4050 -375 4075 -625 
L 3550 -625 
Q 3575 -375 3575 -25 
L 3575 450 
L 2300 450 
Q 1900 450 1375 425 
L 1375 875 
Q 1850 850 2300 850 
L 3575 850 
L 3575 1575 
L 2750 1575 
Q 2200 1550 2000 1475 
L 1825 1925 
Q 2050 2000 2250 2300 
Q 2450 2600 2650 2925 
Q 2025 2925 1575 2900 
L 1575 3325 
Q 2025 3300 2825 3300 
z
M 6000 4075 
Q 5350 4100 4975 4100 
L 1350 4100 
Q 1350 2675 1300 1925 
Q 1250 1175 1137 550 
Q 1025 -75 750 -625 
Q 550 -475 250 -350 
Q 525 125 625 487 
Q 725 850 787 1350 
Q 850 1850 862 2475 
Q 875 3100 850 4475 
L 3250 4475 
Q 3175 4750 3000 5100 
Q 3275 5175 3525 5275 
Q 3725 4825 3825 4475 
L 4975 4475 
Q 5375 4475 6000 4500 
L 6000 4075 
z
" transform="scale(0.015625)"/>
      </defs>
      <use xlink:href="#SimHei-6570"/>
      <use xlink:href="#SimHei-636e" x="100"/>
      <use xlink:href="#SimHei-5e93" x="200"/>
     </g>
    </g>
   </g>
   <g id="matplotlib.axis_6">
    <g id="ytick_15">
     <g id="line2d_46">
      <g>
       <use xlink:href="#mc5b9877437" x="56.855" y="678.61375" style="stroke: #000000; stroke-width: 0.8"/>
      </g>
     </g>
     <g id="text_39">
      <!-- 0.000 -->
      <g transform="translate(24.855 682.05125) scale(0.1 -0.1)">
       <use xlink:href="#SimHei-30"/>
       <use xlink:href="#SimHei-2e" x="50"/>
       <use xlink:href="#SimHei-30" x="100"/>
       <use xlink:href="#SimHei-30" x="150"/>
       <use xlink:href="#SimHei-30" x="200"/>
      </g>
     </g>
    </g>
    <g id="ytick_16">
     <g id="line2d_47">
      <g>
       <use xlink:href="#mc5b9877437" x="56.855" y="640.390331" style="stroke: #000000; stroke-width: 0.8"/>
      </g>
     </g>
     <g id="text_40">
      <!-- 0.025 -->
      <g transform="translate(24.855 643.827831) scale(0.1 -0.1)">
       <use xlink:href="#SimHei-30"/>
       <use xlink:href="#SimHei-2e" x="50"/>
       <use xlink:href="#SimHei-30" x="100"/>
       <use xlink:href="#SimHei-32" x="150"/>
       <use xlink:href="#SimHei-35" x="200"/>
      </g>
     </g>
    </g>
    <g id="ytick_17">
     <g id="line2d_48">
      <g>
       <use xlink:href="#mc5b9877437" x="56.855" y="602.166911" style="stroke: #000000; stroke-width: 0.8"/>
      </g>
     </g>
     <g id="text_41">
      <!-- 0.050 -->
      <g transform="translate(24.855 605.604411) scale(0.1 -0.1)">
       <use xlink:href="#SimHei-30"/>
       <use xlink:href="#SimHei-2e" x="50"/>
       <use xlink:href="#SimHei-30" x="100"/>
       <use xlink:href="#SimHei-35" x="150"/>
       <use xlink:href="#SimHei-30" x="200"/>
      </g>
     </g>
    </g>
    <g id="ytick_18">
     <g id="line2d_49">
      <g>
       <use xlink:href="#mc5b9877437" x="56.855" y="563.943492" style="stroke: #000000; stroke-width: 0.8"/>
      </g>
     </g>
     <g id="text_42">
      <!-- 0.075 -->
      <g transform="translate(24.855 567.380992) scale(0.1 -0.1)">
       <defs>
        <path id="SimHei-37" d="M 850 150 
Q 1300 2050 2425 3925 
L 275 3925 
L 275 4375 
L 2950 4375 
L 2950 3950 
Q 1775 2050 1400 150 
L 850 150 
z
" transform="scale(0.015625)"/>
       </defs>
       <use xlink:href="#SimHei-30"/>
       <use xlink:href="#SimHei-2e" x="50"/>
       <use xlink:href="#SimHei-30" x="100"/>
       <use xlink:href="#SimHei-37" x="150"/>
       <use xlink:href="#SimHei-35" x="200"/>
      </g>
     </g>
    </g>
    <g id="ytick_19">
     <g id="line2d_50">
      <g>
       <use xlink:href="#mc5b9877437" x="56.855" y="525.720073" style="stroke: #000000; stroke-width: 0.8"/>
      </g>
     </g>
     <g id="text_43">
      <!-- 0.100 -->
      <g transform="translate(24.855 529.157573) scale(0.1 -0.1)">
       <use xlink:href="#SimHei-30"/>
       <use xlink:href="#SimHei-2e" x="50"/>
       <use xlink:href="#SimHei-31" x="100"/>
       <use xlink:href="#SimHei-30" x="150"/>
       <use xlink:href="#SimHei-30" x="200"/>
      </g>
     </g>
    </g>
    <g id="ytick_20">
     <g id="line2d_51">
      <g>
       <use xlink:href="#mc5b9877437" x="56.855" y="487.496653" style="stroke: #000000; stroke-width: 0.8"/>
      </g>
     </g>
     <g id="text_44">
      <!-- 0.125 -->
      <g transform="translate(24.855 490.934153) scale(0.1 -0.1)">
       <use xlink:href="#SimHei-30"/>
       <use xlink:href="#SimHei-2e" x="50"/>
       <use xlink:href="#SimHei-31" x="100"/>
       <use xlink:href="#SimHei-32" x="150"/>
       <use xlink:href="#SimHei-35" x="200"/>
      </g>
     </g>
    </g>
    <g id="ytick_21">
     <g id="line2d_52">
      <g>
       <use xlink:href="#mc5b9877437" x="56.855" y="449.273234" style="stroke: #000000; stroke-width: 0.8"/>
      </g>
     </g>
     <g id="text_45">
      <!-- 0.150 -->
      <g transform="translate(24.855 452.710734) scale(0.1 -0.1)">
       <use xlink:href="#SimHei-30"/>
       <use xlink:href="#SimHei-2e" x="50"/>
       <use xlink:href="#SimHei-31" x="100"/>
       <use xlink:href="#SimHei-35" x="150"/>
       <use xlink:href="#SimHei-30" x="200"/>
      </g>
     </g>
    </g>
    <g id="ytick_22">
     <g id="line2d_53">
      <g>
       <use xlink:href="#mc5b9877437" x="56.855" y="411.049815" style="stroke: #000000; stroke-width: 0.8"/>
      </g>
     </g>
     <g id="text_46">
      <!-- 0.175 -->
      <g transform="translate(24.855 414.487315) scale(0.1 -0.1)">
       <use xlink:href="#SimHei-30"/>
       <use xlink:href="#SimHei-2e" x="50"/>
       <use xlink:href="#SimHei-31" x="100"/>
       <use xlink:href="#SimHei-37" x="150"/>
       <use xlink:href="#SimHei-35" x="200"/>
      </g>
     </g>
    </g>
    <g id="text_47">
     <!-- 执行时间 (秒) -->
     <g transform="translate(19.605 562.535625) rotate(-90) scale(0.1 -0.1)">
      <use xlink:href="#SimHei-6267"/>
      <use xlink:href="#SimHei-884c" x="100"/>
      <use xlink:href="#SimHei-65f6" x="200"/>
      <use xlink:href="#SimHei-95f4" x="300"/>
      <use xlink:href="#SimHei-20" x="400"/>
      <use xlink:href="#SimHei-28" x="450"/>
      <use xlink:href="#SimHei-79d2" x="500"/>
      <use xlink:href="#SimHei-29" x="600"/>
     </g>
    </g>
   </g>
   <g id="patch_29">
    <path d="M 56.855 678.61375 
L 56.855 381.4575 
" style="fill: none; stroke: #000000; stroke-width: 0.8; stroke-linejoin: miter; stroke-linecap: square"/>
   </g>
   <g id="patch_30">
    <path d="M 537.12 678.61375 
L 537.12 381.4575 
" style="fill: none; stroke: #000000; stroke-width: 0.8; stroke-linejoin: miter; stroke-linecap: square"/>
   </g>
   <g id="patch_31">
    <path d="M 56.855 678.61375 
L 537.12 678.61375 
" style="fill: none; stroke: #000000; stroke-width: 0.8; stroke-linejoin: miter; stroke-linecap: square"/>
   </g>
   <g id="patch_32">
    <path d="M 56.855 381.4575 
L 537.12 381.4575 
" style="fill: none; stroke: #000000; stroke-width: 0.8; stroke-linejoin: miter; stroke-linecap: square"/>
   </g>
   <g id="text_48">
    <!-- 随机访问性能 (1000次查询) -->
    <g transform="translate(221.9875 375.4575) scale(0.12 -0.12)">
     <defs>
      <path id="SimHei-968f" d="M 4050 4425 
Q 4325 5025 4350 5300 
Q 4675 5150 4950 5075 
Q 4825 4925 4525 4400 
L 5350 4400 
Q 5725 4400 6075 4425 
L 6075 4000 
Q 5775 4025 5350 4025 
L 4400 4025 
Q 4200 3675 3975 3350 
L 5800 3350 
Q 5775 3000 5775 2525 
L 5775 850 
Q 5775 600 5612 525 
Q 5450 450 5050 375 
Q 5025 600 4900 850 
Q 5350 775 5300 1250 
L 4175 1250 
L 4175 425 
L 3700 425 
Q 3725 775 3725 1200 
L 3725 3000 
L 3550 2725 
Q 3350 2900 3125 3000 
Q 3525 3350 3875 4025 
Q 3675 4025 3325 4000 
L 3325 4450 
Q 3675 4425 4050 4425 
z
M 2225 4900 
Q 2125 4725 1575 2925 
Q 1875 2525 2037 2150 
Q 2200 1775 2187 1462 
Q 2175 1150 1900 937 
Q 1625 725 1325 650 
Q 1275 875 1075 1200 
Q 1500 1200 1612 1350 
Q 1725 1500 1625 1900 
Q 1525 2300 1075 2875 
Q 1475 4025 1575 4550 
L 875 4550 
L 875 -625 
L 400 -625 
Q 425 0 425 675 
L 425 3800 
Q 425 4425 400 4900 
L 2225 4900 
z
M 3100 2825 
Q 3075 2475 3075 2050 
L 3075 525 
Q 3125 300 3750 175 
Q 4375 50 4787 37 
Q 5200 25 5500 37 
Q 5800 50 6175 125 
Q 6025 -150 6025 -425 
Q 5350 -425 4837 -387 
Q 4325 -350 3912 -262 
Q 3500 -175 3200 -25 
Q 2900 125 2737 -12 
Q 2575 -150 2300 -475 
Q 2150 -275 1950 -125 
Q 2275 175 2625 400 
L 2625 2425 
L 2175 2425 
L 2175 2850 
Q 2425 2825 3100 2825 
z
M 5300 1600 
L 5300 2125 
L 4175 2125 
L 4175 1600 
L 5300 1600 
z
M 5300 2475 
L 5300 3000 
L 4175 3000 
L 4175 2475 
L 5300 2475 
z
M 2750 4575 
Q 2975 4000 3125 3425 
Q 2875 3400 2625 3275 
Q 2500 3900 2275 4425 
Q 2525 4475 2750 4575 
z
" transform="scale(0.015625)"/>
      <path id="SimHei-673a" d="M 5100 4775 
Q 5075 4075 5075 3575 
L 5075 325 
Q 5075 0 5225 -25 
Q 5375 -50 5475 -37 
Q 5575 -25 5612 137 
Q 5650 300 5650 625 
Q 5875 500 6175 425 
Q 6075 -100 5975 -275 
Q 5875 -450 5650 -450 
L 5125 -450 
Q 4825 -450 4687 -312 
Q 4550 -175 4575 250 
L 4575 4350 
L 3625 4350 
Q 3625 2925 3587 2137 
Q 3550 1350 3362 712 
Q 3175 75 2625 -575 
Q 2500 -425 2175 -175 
Q 2525 100 2737 500 
Q 2950 900 3025 1325 
Q 3100 1750 3125 2225 
Q 3150 2700 3150 3425 
Q 3150 4175 3125 4775 
L 5100 4775 
z
M 2150 2725 
Q 2550 2175 2750 1875 
Q 2575 1725 2325 1550 
Q 2175 1875 1800 2425 
L 1800 600 
Q 1800 100 1825 -525 
L 1275 -525 
Q 1300 100 1300 600 
L 1300 2200 
Q 1175 1825 1025 1487 
Q 875 1150 600 725 
Q 375 975 200 1125 
Q 400 1350 725 2000 
Q 1050 2650 1225 3450 
L 1075 3450 
Q 725 3450 375 3400 
L 375 3875 
Q 725 3850 1050 3850 
L 1300 3850 
L 1300 4350 
Q 1300 4750 1275 5100 
L 1850 5100 
Q 1800 4850 1800 4350 
L 1800 3850 
L 2075 3850 
Q 2350 3850 2700 3875 
L 2700 3425 
Q 2150 3450 1800 3450 
L 1800 2450 
Q 1950 2575 2150 2725 
z
" transform="scale(0.015625)"/>
      <path id="SimHei-8bbf" d="M 2050 -300 
Q 2550 175 2825 675 
Q 3100 1175 3150 1675 
Q 3200 2175 3200 2650 
L 3200 3600 
Q 2650 3600 2125 3575 
L 2125 4050 
Q 2575 4025 2875 4025 
L 5375 4025 
Q 5650 4025 6075 4050 
L 6075 3575 
Q 5700 3600 5275 3600 
L 3675 3600 
L 3675 2750 
L 5600 2750 
Q 5550 2475 5525 1975 
L 5400 175 
Q 5350 -275 5062 -412 
Q 4775 -550 4200 -575 
Q 4175 -325 4000 -25 
Q 4475 -50 4675 -12 
Q 4875 25 4950 375 
L 5075 2325 
L 3675 2325 
Q 3625 1725 3550 1312 
Q 3475 900 3225 412 
Q 2975 -75 2475 -600 
Q 2225 -375 2050 -300 
z
M 2550 925 
Q 2050 475 1750 200 
Q 1450 -75 1200 -325 
Q 1000 -100 850 50 
Q 1125 275 1100 525 
L 1100 2775 
L 325 2775 
L 325 3250 
Q 625 3225 900 3225 
L 1625 3225 
Q 1600 2750 1600 2250 
L 1600 650 
Q 1825 825 2375 1350 
Q 2400 1125 2550 925 
z
M 1050 5125 
Q 1275 4875 1850 4050 
Q 1675 3925 1425 3750 
Q 1050 4375 650 4850 
Q 900 5000 1050 5125 
z
M 3425 5025 
Q 3675 5125 3850 5275 
Q 4100 4950 4425 4300 
Q 4175 4225 3950 4075 
Q 3800 4475 3425 5025 
z
" transform="scale(0.015625)"/>
      <path id="SimHei-95ee" d="M 4375 3225 
Q 4350 2675 4350 2100 
Q 4350 1525 4375 1050 
L 1900 1050 
Q 1925 1575 1925 2075 
Q 1925 2575 1900 3225 
L 4375 3225 
z
M 5800 4825 
Q 5775 4350 5775 3850 
L 5775 100 
Q 5775 -375 5500 -462 
Q 5225 -550 4725 -625 
Q 4700 -275 4500 -25 
Q 5025 -25 5125 0 
Q 5225 25 5250 225 
L 5250 4400 
L 3800 4400 
Q 3175 4400 2675 4375 
L 2675 4850 
Q 3175 4825 3775 4825 
L 5800 4825 
z
M 1175 3875 
Q 1150 3450 1150 3175 
L 1150 -600 
L 600 -600 
Q 625 -100 625 325 
L 625 3050 
Q 625 3500 600 3875 
L 1175 3875 
z
M 3850 1475 
L 3850 2800 
L 2400 2800 
L 2400 1475 
L 3850 1475 
z
M 1400 5200 
Q 1700 4800 2125 4325 
Q 1950 4200 1675 4000 
Q 1325 4550 975 4875 
Q 1225 5075 1400 5200 
z
" transform="scale(0.015625)"/>
      <path id="SimHei-6b21" d="M 4150 3025 
Q 4000 2550 4050 2187 
Q 4100 1825 4275 1450 
Q 4450 1075 4800 750 
Q 5150 425 5475 212 
Q 5800 0 6150 -150 
Q 5875 -350 5750 -625 
Q 5250 -325 4887 -25 
Q 4525 275 4275 612 
Q 4025 950 3825 1425 
Q 3525 625 2950 125 
Q 2375 -375 1850 -650 
Q 1675 -400 1475 -225 
Q 2025 0 2487 362 
Q 2950 725 3162 1100 
Q 3375 1475 3450 1825 
Q 3525 2175 3537 2400 
Q 3550 2625 3525 3125 
Q 3825 3050 4150 3025 
z
M 3700 4975 
Q 3625 4900 3475 4575 
Q 3325 4250 3250 4075 
L 5775 4075 
Q 5650 3725 5550 3362 
Q 5450 3000 5275 2500 
Q 5000 2575 4775 2600 
Q 5025 3350 5100 3650 
L 3100 3650 
Q 2975 3400 2812 3100 
Q 2650 2800 2425 2450 
Q 2275 2600 1975 2700 
Q 2300 3050 2625 3762 
Q 2950 4475 3125 5200 
Q 3450 5025 3700 4975 
z
M 2025 2000 
Q 1825 1675 1475 1087 
Q 1125 500 725 -200 
Q 500 -25 250 175 
Q 725 725 1037 1262 
Q 1350 1800 1575 2325 
Q 1750 2175 2025 2000 
z
M 900 4750 
Q 1725 3725 1950 3375 
Q 1750 3250 1500 3050 
Q 1250 3525 500 4425 
Q 700 4575 900 4750 
z
" transform="scale(0.015625)"/>
     </defs>
     <use xlink:href="#SimHei-968f"/>
     <use xlink:href="#SimHei-673a" x="100"/>
     <use xlink:href="#SimHei-8bbf" x="200"/>
     <use xlink:href="#SimHei-95ee" x="300"/>
     <use xlink:href="#SimHei-6027" x="400"/>
     <use xlink:href="#SimHei-80fd" x="500"/>
     <use xlink:href="#SimHei-20" x="600"/>
     <use xlink:href="#SimHei-28" x="650"/>
     <use xlink:href="#SimHei-31" x="700"/>
     <use xlink:href="#SimHei-30" x="750"/>
     <use xlink:href="#SimHei-30" x="800"/>
     <use xlink:href="#SimHei-30" x="850"/>
     <use xlink:href="#SimHei-6b21" x="900"/>
     <use xlink:href="#SimHei-67e5" x="1000"/>
     <use xlink:href="#SimHei-8be2" x="1100"/>
     <use xlink:href="#SimHei-29" x="1200"/>
    </g>
   </g>
  </g>
  <g id="axes_4">
   <g id="patch_33">
    <path d="M 588.935 678.61375 
L 1069.2 678.61375 
L 1069.2 381.4575 
L 588.935 381.4575 
z
" style="fill: #ffffff"/>
   </g>
   <g id="patch_34">
    <path d="M 610.765227 678.61375 
L 683.532652 678.61375 
L 683.532652 508.036765 
L 610.765227 508.036765 
z
" clip-path="url(#pe989e5122a)" style="fill: #1f77b4"/>
   </g>
   <g id="patch_35">
    <path d="M 701.724508 678.61375 
L 774.491932 678.61375 
L 774.491932 491.071639 
L 701.724508 491.071639 
z
" clip-path="url(#pe989e5122a)" style="fill: #1f77b4"/>
   </g>
   <g id="patch_36">
    <path d="M 792.683788 678.61375 
L 865.451212 678.61375 
L 865.451212 468.501421 
L 792.683788 468.501421 
z
" clip-path="url(#pe989e5122a)" style="fill: #1f77b4"/>
   </g>
   <g id="patch_37">
    <path d="M 883.643068 678.61375 
L 956.410492 678.61375 
L 956.410492 480.223363 
L 883.643068 480.223363 
z
" clip-path="url(#pe989e5122a)" style="fill: #1f77b4"/>
   </g>
   <g id="patch_38">
    <path d="M 974.602348 678.61375 
L 1047.369773 678.61375 
L 1047.369773 395.607798 
L 974.602348 395.607798 
z
" clip-path="url(#pe989e5122a)" style="fill: #1f77b4"/>
   </g>
   <g id="matplotlib.axis_7">
    <g id="xtick_14">
     <g id="line2d_54">
      <g>
       <use xlink:href="#m97cd26a0bd" x="647.148939" y="678.61375" style="stroke: #000000; stroke-width: 0.8"/>
      </g>
     </g>
     <g id="text_49">
      <!-- 插入 -->
      <g transform="translate(637.148939 693.543437) scale(0.1 -0.1)">
       <use xlink:href="#SimHei-63d2"/>
       <use xlink:href="#SimHei-5165" x="100"/>
      </g>
     </g>
    </g>
    <g id="xtick_15">
     <g id="line2d_55">
      <g>
       <use xlink:href="#m97cd26a0bd" x="738.10822" y="678.61375" style="stroke: #000000; stroke-width: 0.8"/>
      </g>
     </g>
     <g id="text_50">
      <!-- 查询 -->
      <g transform="translate(728.10822 693.660625) scale(0.1 -0.1)">
       <use xlink:href="#SimHei-67e5"/>
       <use xlink:href="#SimHei-8be2" x="100"/>
      </g>
     </g>
    </g>
    <g id="xtick_16">
     <g id="line2d_56">
      <g>
       <use xlink:href="#m97cd26a0bd" x="829.0675" y="678.61375" style="stroke: #000000; stroke-width: 0.8"/>
      </g>
     </g>
     <g id="text_51">
      <!-- 更新 -->
      <g transform="translate(819.0675 693.699687) scale(0.1 -0.1)">
       <use xlink:href="#SimHei-66f4"/>
       <use xlink:href="#SimHei-65b0" x="100"/>
      </g>
     </g>
    </g>
    <g id="xtick_17">
     <g id="line2d_57">
      <g>
       <use xlink:href="#m97cd26a0bd" x="920.02678" y="678.61375" style="stroke: #000000; stroke-width: 0.8"/>
      </g>
     </g>
     <g id="text_52">
      <!-- 删除 -->
      <g transform="translate(910.02678 693.699687) scale(0.1 -0.1)">
       <use xlink:href="#SimHei-5220"/>
       <use xlink:href="#SimHei-9664" x="100"/>
      </g>
     </g>
    </g>
    <g id="xtick_18">
     <g id="line2d_58">
      <g>
       <use xlink:href="#m97cd26a0bd" x="1010.986061" y="678.61375" style="stroke: #000000; stroke-width: 0.8"/>
      </g>
     </g>
     <g id="text_53">
      <!-- 批量 -->
      <g transform="translate(1000.986061 693.42625) scale(0.1 -0.1)">
       <use xlink:href="#SimHei-6279"/>
       <use xlink:href="#SimHei-91cf" x="100"/>
      </g>
     </g>
    </g>
    <g id="text_54">
     <!-- 操作类型 -->
     <g transform="translate(809.0675 707.074687) scale(0.1 -0.1)">
      <use xlink:href="#SimHei-64cd"/>
      <use xlink:href="#SimHei-4f5c" x="100"/>
      <use xlink:href="#SimHei-7c7b" x="200"/>
      <use xlink:href="#SimHei-578b" x="300"/>
     </g>
    </g>
   </g>
   <g id="matplotlib.axis_8">
    <g id="ytick_23">
     <g id="line2d_59">
      <g>
       <use xlink:href="#mc5b9877437" x="588.935" y="678.61375" style="stroke: #000000; stroke-width: 0.8"/>
      </g>
     </g>
     <g id="text_55">
      <!-- 0.0 -->
      <g transform="translate(566.935 682.05125) scale(0.1 -0.1)">
       <use xlink:href="#SimHei-30"/>
       <use xlink:href="#SimHei-2e" x="50"/>
       <use xlink:href="#SimHei-30" x="100"/>
      </g>
     </g>
    </g>
    <g id="ytick_24">
     <g id="line2d_60">
      <g>
       <use xlink:href="#mc5b9877437" x="588.935" y="626.720736" style="stroke: #000000; stroke-width: 0.8"/>
      </g>
     </g>
     <g id="text_56">
      <!-- 0.5 -->
      <g transform="translate(566.935 630.158236) scale(0.1 -0.1)">
       <use xlink:href="#SimHei-30"/>
       <use xlink:href="#SimHei-2e" x="50"/>
       <use xlink:href="#SimHei-35" x="100"/>
      </g>
     </g>
    </g>
    <g id="ytick_25">
     <g id="line2d_61">
      <g>
       <use xlink:href="#mc5b9877437" x="588.935" y="574.827721" style="stroke: #000000; stroke-width: 0.8"/>
      </g>
     </g>
     <g id="text_57">
      <!-- 1.0 -->
      <g transform="translate(566.935 578.265221) scale(0.1 -0.1)">
       <use xlink:href="#SimHei-31"/>
       <use xlink:href="#SimHei-2e" x="50"/>
       <use xlink:href="#SimHei-30" x="100"/>
      </g>
     </g>
    </g>
    <g id="ytick_26">
     <g id="line2d_62">
      <g>
       <use xlink:href="#mc5b9877437" x="588.935" y="522.934707" style="stroke: #000000; stroke-width: 0.8"/>
      </g>
     </g>
     <g id="text_58">
      <!-- 1.5 -->
      <g transform="translate(566.935 526.372207) scale(0.1 -0.1)">
       <use xlink:href="#SimHei-31"/>
       <use xlink:href="#SimHei-2e" x="50"/>
       <use xlink:href="#SimHei-35" x="100"/>
      </g>
     </g>
    </g>
    <g id="ytick_27">
     <g id="line2d_63">
      <g>
       <use xlink:href="#mc5b9877437" x="588.935" y="471.041693" style="stroke: #000000; stroke-width: 0.8"/>
      </g>
     </g>
     <g id="text_59">
      <!-- 2.0 -->
      <g transform="translate(566.935 474.479193) scale(0.1 -0.1)">
       <use xlink:href="#SimHei-32"/>
       <use xlink:href="#SimHei-2e" x="50"/>
       <use xlink:href="#SimHei-30" x="100"/>
      </g>
     </g>
    </g>
    <g id="ytick_28">
     <g id="line2d_64">
      <g>
       <use xlink:href="#mc5b9877437" x="588.935" y="419.148678" style="stroke: #000000; stroke-width: 0.8"/>
      </g>
     </g>
     <g id="text_60">
      <!-- 2.5 -->
      <g transform="translate(566.935 422.586178) scale(0.1 -0.1)">
       <use xlink:href="#SimHei-32"/>
       <use xlink:href="#SimHei-2e" x="50"/>
       <use xlink:href="#SimHei-35" x="100"/>
      </g>
     </g>
    </g>
    <g id="text_61">
     <!-- MySQL/Redis 时间比率 -->
     <g transform="translate(561.685 580.035625) rotate(-90) scale(0.1 -0.1)">
      <defs>
       <path id="SimHei-2f" d="M 3000 4550 
L 350 -175 
L 100 -25 
L 2750 4700 
L 3000 4550 
z
" transform="scale(0.015625)"/>
       <path id="SimHei-7387" d="M 3325 5150 
Q 3425 4900 3550 4525 
L 4800 4525 
Q 5250 4525 5800 4550 
L 5800 4125 
Q 5250 4175 4775 4175 
L 2800 4175 
Q 2975 4050 3300 3900 
Q 3075 3750 2875 3537 
Q 2675 3325 2475 3125 
L 3275 3125 
Q 3575 3425 3775 3775 
Q 4000 3600 4275 3425 
Q 3950 3250 3600 2875 
Q 3250 2500 2625 2000 
L 3850 2100 
Q 3725 2250 3600 2425 
Q 3750 2475 4000 2650 
Q 4250 2350 4700 1700 
Q 4475 1625 4225 1450 
Q 4175 1600 4025 1775 
Q 3700 1750 3425 1750 
L 3425 1050 
L 5150 1050 
Q 5675 1050 6100 1075 
L 6100 650 
Q 5700 675 5125 675 
L 3425 675 
L 3425 175 
Q 3425 -300 3450 -625 
L 2900 -625 
Q 2925 -300 2925 175 
L 2925 675 
L 1325 675 
Q 825 675 325 650 
L 325 1075 
Q 825 1050 1350 1050 
L 2925 1050 
L 2925 1700 
Q 2700 1675 2475 1637 
Q 2250 1600 2025 1525 
Q 1950 1775 1850 2000 
Q 2075 2025 2325 2200 
Q 2575 2375 2975 2800 
Q 2300 2725 2025 2625 
Q 1975 2875 1850 3175 
Q 2075 3175 2325 3487 
Q 2575 3800 2750 4175 
L 1700 4175 
Q 1150 4175 650 4125 
L 650 4550 
Q 1150 4525 1550 4525 
L 2975 4525 
Q 2900 4825 2800 5025 
Q 3025 5075 3325 5150 
z
M 1625 2575 
Q 1725 2400 1825 2200 
Q 1575 2050 1325 1862 
Q 1075 1675 800 1425 
Q 625 1675 475 1875 
Q 800 2025 1100 2212 
Q 1400 2400 1625 2575 
z
M 4850 2650 
Q 5125 2475 5337 2337 
Q 5550 2200 5875 1950 
Q 5675 1800 5500 1600 
Q 5300 1775 5062 1975 
Q 4825 2175 4575 2325 
Q 4725 2475 4850 2650 
z
M 5725 3525 
Q 5550 3450 5300 3262 
Q 5050 3075 4800 2825 
Q 4625 3050 4475 3175 
Q 4700 3325 4875 3487 
Q 5050 3650 5300 3925 
Q 5525 3700 5725 3525 
z
M 1050 3850 
Q 1425 3600 1775 3275 
Q 1575 3100 1425 2925 
Q 1075 3300 675 3525 
Q 875 3700 1050 3850 
z
" transform="scale(0.015625)"/>
      </defs>
      <use xlink:href="#SimHei-4d"/>
      <use xlink:href="#SimHei-79" x="50"/>
      <use xlink:href="#SimHei-53" x="100"/>
      <use xlink:href="#SimHei-51" x="150"/>
      <use xlink:href="#SimHei-4c" x="200"/>
      <use xlink:href="#SimHei-2f" x="250"/>
      <use xlink:href="#SimHei-52" x="300"/>
      <use xlink:href="#SimHei-65" x="350"/>
      <use xlink:href="#SimHei-64" x="400"/>
      <use xlink:href="#SimHei-69" x="450"/>
      <use xlink:href="#SimHei-73" x="500"/>
      <use xlink:href="#SimHei-20" x="550"/>
      <use xlink:href="#SimHei-65f6" x="600"/>
      <use xlink:href="#SimHei-95f4" x="700"/>
      <use xlink:href="#SimHei-6bd4" x="800"/>
      <use xlink:href="#SimHei-7387" x="900"/>
     </g>
    </g>
   </g>
   <g id="line2d_65">
    <path d="M 588.935 574.827721 
L 1069.2 574.827721 
" clip-path="url(#pe989e5122a)" style="fill: none; stroke: #ff0000; stroke-opacity: 0.3; stroke-width: 1.5; stroke-linecap: square"/>
   </g>
   <g id="patch_39">
    <path d="M 588.935 678.61375 
L 588.935 381.4575 
" style="fill: none; stroke: #000000; stroke-width: 0.8; stroke-linejoin: miter; stroke-linecap: square"/>
   </g>
   <g id="patch_40">
    <path d="M 1069.2 678.61375 
L 1069.2 381.4575 
" style="fill: none; stroke: #000000; stroke-width: 0.8; stroke-linejoin: miter; stroke-linecap: square"/>
   </g>
   <g id="patch_41">
    <path d="M 588.935 678.61375 
L 1069.2 678.61375 
" style="fill: none; stroke: #000000; stroke-width: 0.8; stroke-linejoin: miter; stroke-linecap: square"/>
   </g>
   <g id="patch_42">
    <path d="M 588.935 381.4575 
L 1069.2 381.4575 
" style="fill: none; stroke: #000000; stroke-width: 0.8; stroke-linejoin: miter; stroke-linecap: square"/>
   </g>
   <g id="text_62">
    <!-- MySQL与Redis性能比率 -->
    <g transform="translate(769.0675 375.4575) scale(0.12 -0.12)">
     <defs>
      <path id="SimHei-4e0e" d="M 5350 100 
Q 5275 -300 4925 -425 
Q 4575 -550 3900 -600 
Q 3875 -375 3650 -25 
Q 4375 -50 4575 0 
Q 4775 50 4837 225 
Q 4900 400 5100 2350 
L 1125 2350 
Q 1450 4350 1475 5200 
Q 1800 5150 2075 5125 
Q 1975 4825 1900 4275 
L 4900 4275 
Q 5400 4275 5800 4300 
L 5800 3825 
Q 5400 3850 4950 3850 
L 1850 3850 
L 1700 2750 
L 5675 2750 
Q 5625 2450 5575 2050 
L 5350 100 
z
M 3675 1350 
Q 4125 1350 4500 1375 
L 4500 875 
Q 4125 900 3850 900 
L 1450 900 
Q 1000 900 500 875 
L 500 1375 
Q 1000 1350 1450 1350 
L 3675 1350 
z
" transform="scale(0.015625)"/>
     </defs>
     <use xlink:href="#SimHei-4d"/>
     <use xlink:href="#SimHei-79" x="50"/>
     <use xlink:href="#SimHei-53" x="100"/>
     <use xlink:href="#SimHei-51" x="150"/>
     <use xlink:href="#SimHei-4c" x="200"/>
     <use xlink:href="#SimHei-4e0e" x="250"/>
     <use xlink:href="#SimHei-52" x="350"/>
     <use xlink:href="#SimHei-65" x="400"/>
     <use xlink:href="#SimHei-64" x="450"/>
     <use xlink:href="#SimHei-69" x="500"/>
     <use xlink:href="#SimHei-73" x="550"/>
     <use xlink:href="#SimHei-6027" x="600"/>
     <use xlink:href="#SimHei-80fd" x="700"/>
     <use xlink:href="#SimHei-6bd4" x="800"/>
     <use xlink:href="#SimHei-7387" x="900"/>
    </g>
   </g>
  </g>
 </g>
 <defs>
  <clipPath id="p5505b24140">
   <rect x="56.855" y="27.015" width="480.265" height="297.15625"/>
  </clipPath>
  <clipPath id="p8478c042db">
   <rect x="588.935" y="27.015" width="480.265" height="297.15625"/>
  </clipPath>
  <clipPath id="pff326af4bd">
   <rect x="56.855" y="381.4575" width="480.265" height="297.15625"/>
  </clipPath>
  <clipPath id="pe989e5122a">
   <rect x="588.935" y="381.4575" width="480.265" height="297.15625"/>
  </clipPath>
 </defs>
</svg>
